<mxfile host="app.diagrams.net" agent="Mozilla/5.0 (Windows NT 10.0; Win64; x64) AppleWebKit/537.36 (KHTML, like Gecko) Chrome/131.0.0.0 Safari/537.36" version="25.0.3">
  <diagram name="Page-1" id="HTOZjS7afstR1meojdEO">
    <mxGraphModel dx="3793" dy="2193" grid="1" gridSize="10" guides="1" tooltips="1" connect="1" arrows="1" fold="1" page="1" pageScale="1" pageWidth="827" pageHeight="1169" math="0" shadow="0">
      <root>
        <mxCell id="0" />
        <mxCell id="1" parent="0" />
        <mxCell id="P5rdZ5vx_de0cUmey6Gz-4" style="edgeStyle=orthogonalEdgeStyle;shape=connector;curved=0;rounded=1;orthogonalLoop=1;jettySize=auto;html=1;entryX=0.5;entryY=0;entryDx=0;entryDy=0;strokeColor=default;align=center;verticalAlign=middle;fontFamily=Helvetica;fontSize=12;fontColor=default;labelBackgroundColor=default;endArrow=none;endFill=0;strokeWidth=2;exitX=0.5;exitY=0.956;exitDx=0;exitDy=0;exitPerimeter=0;" parent="1" source="P5rdZ5vx_de0cUmey6Gz-5" target="P5rdZ5vx_de0cUmey6Gz-28" edge="1">
          <mxGeometry relative="1" as="geometry" />
        </mxCell>
        <mxCell id="P5rdZ5vx_de0cUmey6Gz-5" value="&lt;p&gt;&lt;font style=&quot;font-size: 25px;&quot; face=&quot;Times New Roman&quot;&gt;Opera&lt;/font&gt;&lt;/p&gt;" style="rounded=1;whiteSpace=wrap;html=1;shadow=1;fillColor=#d5e8d4;strokeColor=#82b366;" parent="1" vertex="1">
          <mxGeometry x="84" y="979" width="190" height="200" as="geometry" />
        </mxCell>
        <mxCell id="P5rdZ5vx_de0cUmey6Gz-6" value="&lt;p&gt;&lt;font style=&quot;font-size: 25px;&quot; face=&quot;Times New Roman&quot;&gt;Visitatore&lt;/font&gt;&lt;/p&gt;" style="rounded=1;whiteSpace=wrap;html=1;shadow=1;fillColor=#d5e8d4;strokeColor=#82b366;" parent="1" vertex="1">
          <mxGeometry x="962.05" y="581" width="200" height="130" as="geometry" />
        </mxCell>
        <mxCell id="P5rdZ5vx_de0cUmey6Gz-7" style="edgeStyle=orthogonalEdgeStyle;shape=connector;curved=0;rounded=1;orthogonalLoop=1;jettySize=auto;html=1;entryX=0.5;entryY=0;entryDx=0;entryDy=0;strokeColor=default;align=center;verticalAlign=middle;fontFamily=Helvetica;fontSize=12;fontColor=default;labelBackgroundColor=default;endArrow=none;endFill=0;strokeWidth=2;" parent="1" source="P5rdZ5vx_de0cUmey6Gz-8" target="P5rdZ5vx_de0cUmey6Gz-26" edge="1">
          <mxGeometry relative="1" as="geometry" />
        </mxCell>
        <mxCell id="P5rdZ5vx_de0cUmey6Gz-8" value="&lt;p&gt;&lt;font face=&quot;Times New Roman&quot;&gt;&lt;span style=&quot;font-size: 25px;&quot;&gt;Mostra&lt;/span&gt;&lt;/font&gt;&lt;/p&gt;" style="rounded=1;whiteSpace=wrap;html=1;shadow=1;fillColor=#d5e8d4;strokeColor=#82b366;" parent="1" vertex="1">
          <mxGeometry x="260" y="620" width="320" height="90" as="geometry" />
        </mxCell>
        <mxCell id="P5rdZ5vx_de0cUmey6Gz-9" value="&lt;p&gt;&lt;font style=&quot;font-size: 25px;&quot; face=&quot;Times New Roman&quot;&gt;Feedback&lt;/font&gt;&lt;/p&gt;" style="rounded=1;whiteSpace=wrap;html=1;shadow=1;fillColor=#d5e8d4;strokeColor=#82b366;" parent="1" vertex="1">
          <mxGeometry x="1223" y="747" width="200" height="114" as="geometry" />
        </mxCell>
        <mxCell id="P5rdZ5vx_de0cUmey6Gz-10" style="edgeStyle=orthogonalEdgeStyle;shape=connector;curved=0;rounded=1;orthogonalLoop=1;jettySize=auto;html=1;entryX=0;entryY=0.5;entryDx=0;entryDy=0;strokeColor=default;align=center;verticalAlign=middle;fontFamily=Helvetica;fontSize=12;fontColor=default;labelBackgroundColor=default;endArrow=none;endFill=0;strokeWidth=2;" parent="1" source="P5rdZ5vx_de0cUmey6Gz-11" target="P5rdZ5vx_de0cUmey6Gz-23" edge="1">
          <mxGeometry relative="1" as="geometry">
            <mxPoint x="-149.04999999999995" y="935" as="targetPoint" />
          </mxGeometry>
        </mxCell>
        <mxCell id="P5rdZ5vx_de0cUmey6Gz-11" value="&lt;p&gt;&lt;font style=&quot;font-size: 25px;&quot; face=&quot;Times New Roman&quot;&gt;Magazzino&lt;/font&gt;&lt;/p&gt;" style="rounded=1;whiteSpace=wrap;html=1;shadow=1;fillColor=#d5e8d4;strokeColor=#82b366;" parent="1" vertex="1">
          <mxGeometry x="-659.95" y="989" width="310.95" height="90" as="geometry" />
        </mxCell>
        <mxCell id="P5rdZ5vx_de0cUmey6Gz-12" style="edgeStyle=orthogonalEdgeStyle;shape=connector;curved=0;rounded=1;orthogonalLoop=1;jettySize=auto;html=1;entryX=0.5;entryY=0;entryDx=0;entryDy=0;strokeColor=default;align=center;verticalAlign=middle;fontFamily=Helvetica;fontSize=12;fontColor=default;labelBackgroundColor=default;endArrow=none;endFill=0;strokeWidth=2;exitX=0.5;exitY=1;exitDx=0;exitDy=0;exitPerimeter=0;" parent="1" source="P5rdZ5vx_de0cUmey6Gz-13" target="P5rdZ5vx_de0cUmey6Gz-24" edge="1">
          <mxGeometry relative="1" as="geometry" />
        </mxCell>
        <mxCell id="P5rdZ5vx_de0cUmey6Gz-13" value="&lt;p&gt;&lt;font style=&quot;font-size: 25px;&quot; face=&quot;Times New Roman&quot;&gt;Restauro&lt;/font&gt;&lt;/p&gt;" style="rounded=1;whiteSpace=wrap;html=1;shadow=1;fillColor=#d5e8d4;strokeColor=#82b366;" parent="1" vertex="1">
          <mxGeometry x="-329.29" y="590" width="200" height="150" as="geometry" />
        </mxCell>
        <mxCell id="P5rdZ5vx_de0cUmey6Gz-14" value="&lt;p&gt;&lt;font style=&quot;font-size: 25px;&quot; face=&quot;Times New Roman&quot;&gt;Categoria_Opera&lt;/font&gt;&lt;/p&gt;" style="rounded=1;whiteSpace=wrap;html=1;shadow=1;fillColor=#d5e8d4;strokeColor=#82b366;" parent="1" vertex="1">
          <mxGeometry x="382" y="1298.85" width="190" height="90" as="geometry" />
        </mxCell>
        <mxCell id="P5rdZ5vx_de0cUmey6Gz-15" style="edgeStyle=orthogonalEdgeStyle;shape=connector;curved=0;rounded=0;orthogonalLoop=1;jettySize=auto;html=1;entryX=1;entryY=0.5;entryDx=0;entryDy=0;strokeColor=default;align=center;verticalAlign=middle;fontFamily=Helvetica;fontSize=12;fontColor=default;labelBackgroundColor=default;endArrow=none;endFill=0;strokeWidth=2;endSize=6;startFill=1;" parent="1" source="P5rdZ5vx_de0cUmey6Gz-17" target="P5rdZ5vx_de0cUmey6Gz-52" edge="1">
          <mxGeometry relative="1" as="geometry" />
        </mxCell>
        <mxCell id="P5rdZ5vx_de0cUmey6Gz-16" value="" style="edgeStyle=orthogonalEdgeStyle;shape=connector;curved=0;rounded=1;orthogonalLoop=1;jettySize=auto;html=1;strokeColor=default;strokeWidth=2;align=center;verticalAlign=middle;fontFamily=Helvetica;fontSize=12;fontColor=default;labelBackgroundColor=default;endArrow=none;endFill=0;entryX=0.5;entryY=0;entryDx=0;entryDy=0;" parent="1" source="P5rdZ5vx_de0cUmey6Gz-17" target="P5rdZ5vx_de0cUmey6Gz-33" edge="1">
          <mxGeometry relative="1" as="geometry">
            <mxPoint x="330" y="140" as="targetPoint" />
          </mxGeometry>
        </mxCell>
        <mxCell id="P5rdZ5vx_de0cUmey6Gz-17" value="&lt;p&gt;&lt;font style=&quot;font-size: 25px;&quot; face=&quot;Times New Roman&quot;&gt;Curatore&lt;/font&gt;&lt;/p&gt;" style="rounded=1;whiteSpace=wrap;html=1;shadow=1;fillColor=#d5e8d4;strokeColor=#82b366;" parent="1" vertex="1">
          <mxGeometry x="-49.99999999999999" width="200" height="90" as="geometry" />
        </mxCell>
        <mxCell id="P5rdZ5vx_de0cUmey6Gz-18" style="edgeStyle=orthogonalEdgeStyle;shape=connector;curved=0;rounded=1;orthogonalLoop=1;jettySize=auto;html=1;strokeColor=default;align=center;verticalAlign=middle;fontFamily=Helvetica;fontSize=11;fontColor=default;labelBackgroundColor=default;endArrow=none;endFill=0;exitX=1;exitY=0.5;exitDx=0;exitDy=0;entryX=0;entryY=0.75;entryDx=0;entryDy=0;strokeWidth=2;" parent="1" source="P5rdZ5vx_de0cUmey6Gz-23" target="P5rdZ5vx_de0cUmey6Gz-5" edge="1">
          <mxGeometry relative="1" as="geometry">
            <mxPoint x="-34.08999999999992" y="935.4200000000001" as="sourcePoint" />
            <mxPoint x="40.000000000000185" y="935.4200000000001" as="targetPoint" />
          </mxGeometry>
        </mxCell>
        <mxCell id="P5rdZ5vx_de0cUmey6Gz-19" style="edgeStyle=orthogonalEdgeStyle;shape=connector;curved=0;rounded=1;orthogonalLoop=1;jettySize=auto;html=1;entryX=0.5;entryY=0;entryDx=0;entryDy=0;strokeColor=default;align=center;verticalAlign=middle;fontFamily=Helvetica;fontSize=12;fontColor=default;labelBackgroundColor=default;endArrow=none;endFill=0;strokeWidth=2;" parent="1" source="P5rdZ5vx_de0cUmey6Gz-20" target="P5rdZ5vx_de0cUmey6Gz-44" edge="1">
          <mxGeometry relative="1" as="geometry" />
        </mxCell>
        <mxCell id="P5rdZ5vx_de0cUmey6Gz-20" value="&lt;p&gt;&lt;font style=&quot;font-size: 25px;&quot; face=&quot;Times New Roman&quot;&gt;Evento&lt;/font&gt;&lt;span style=&quot;color: rgba(0, 0, 0, 0); font-family: monospace; font-size: 0px; text-align: start; text-wrap-mode: nowrap; background-color: initial;&quot;&gt;%3CmxGraphModel%3E%3Croot%3E%3CmxCell%20id%3D%220%22%2F%3E%3CmxCell%20id%3D%221%22%20parent%3D%220%22%2F%3E%3CmxCell%20id%3D%222%22%20value%3D%22%26lt%3Bp%26gt%3B%26lt%3Bfont%20face%3D%26quot%3BTimes%20New%20Roman%26quot%3B%26gt%3B%26lt%3Bspan%20style%3D%26quot%3Bfont-size%3A%2020px%3B%26quot%3B%26gt%3BPrestito%26lt%3B%2Fspan%26gt%3B%26lt%3B%2Ffont%26gt%3B%26lt%3B%2Fp%26gt%3B%22%20style%3D%22rounded%3D1%3BwhiteSpace%3Dwrap%3Bhtml%3D1%3Bshadow%3D1%3B%22%20vertex%3D%221%22%20parent%3D%221%22%3E%3CmxGeometry%20x%3D%22-413%22%20y%3D%22270%22%20width%3D%22200%22%20height%3D%2290%22%20as%3D%22geometry%22%2F%3E%3C%2FmxCell%3E%3C%2Froot%3E%3C%2FmxGraphModel%3E&lt;/span&gt;&lt;/p&gt;" style="rounded=1;whiteSpace=wrap;html=1;shadow=1;fillColor=#d5e8d4;strokeColor=#82b366;" parent="1" vertex="1">
          <mxGeometry x="410" y="310" width="370" height="90" as="geometry" />
        </mxCell>
        <mxCell id="P5rdZ5vx_de0cUmey6Gz-21" value="&lt;font style=&quot;font-size: 22px;&quot; face=&quot;Garamond&quot;&gt;&lt;b style=&quot;&quot;&gt;Presta&lt;/b&gt;&lt;/font&gt;" style="rhombus;whiteSpace=wrap;html=1;rounded=1;shadow=1;strokeWidth=1;fillColor=#ffe6cc;strokeColor=#d79b00;" parent="1" vertex="1">
          <mxGeometry x="-648.5300000000001" y="768" width="148.58" height="82" as="geometry" />
        </mxCell>
        <mxCell id="P5rdZ5vx_de0cUmey6Gz-22" style="edgeStyle=orthogonalEdgeStyle;shape=connector;curved=0;rounded=1;orthogonalLoop=1;jettySize=auto;html=1;strokeColor=default;align=center;verticalAlign=middle;fontFamily=Helvetica;fontSize=11;fontColor=default;labelBackgroundColor=default;endArrow=none;endFill=0;exitX=1;exitY=0.5;exitDx=0;exitDy=0;strokeWidth=2;entryX=0;entryY=0.5;entryDx=0;entryDy=0;" parent="1" source="P5rdZ5vx_de0cUmey6Gz-21" target="P5rdZ5vx_de0cUmey6Gz-5" edge="1">
          <mxGeometry relative="1" as="geometry">
            <mxPoint x="-339" y="890" as="targetPoint" />
          </mxGeometry>
        </mxCell>
        <mxCell id="P5rdZ5vx_de0cUmey6Gz-23" value="&lt;font style=&quot;font-size: 22px;&quot; face=&quot;Garamond&quot;&gt;&lt;b style=&quot;&quot;&gt;Archivia&lt;/b&gt;&lt;/font&gt;" style="rhombus;whiteSpace=wrap;html=1;rounded=1;shadow=1;strokeWidth=1;fillColor=#ffe6cc;strokeColor=#d79b00;" parent="1" vertex="1">
          <mxGeometry x="-198.57999999999998" y="1194" width="148.58" height="82" as="geometry" />
        </mxCell>
        <mxCell id="P5rdZ5vx_de0cUmey6Gz-24" value="&lt;font style=&quot;font-size: 22px;&quot; face=&quot;Garamond&quot;&gt;&lt;b style=&quot;&quot;&gt;Prevede&lt;/b&gt;&lt;/font&gt;" style="rhombus;whiteSpace=wrap;html=1;rounded=1;shadow=1;strokeWidth=1;fillColor=#ffe6cc;strokeColor=#d79b00;" parent="1" vertex="1">
          <mxGeometry x="-167.57999999999996" y="850" width="148.58" height="82" as="geometry" />
        </mxCell>
        <mxCell id="P5rdZ5vx_de0cUmey6Gz-25" style="edgeStyle=orthogonalEdgeStyle;shape=connector;curved=0;rounded=1;orthogonalLoop=1;jettySize=auto;html=1;entryX=0.157;entryY=-0.002;entryDx=0;entryDy=0;entryPerimeter=0;strokeColor=default;align=center;verticalAlign=middle;fontFamily=Helvetica;fontSize=12;fontColor=default;labelBackgroundColor=default;endArrow=none;endFill=0;strokeWidth=2;" parent="1" source="P5rdZ5vx_de0cUmey6Gz-24" target="P5rdZ5vx_de0cUmey6Gz-5" edge="1">
          <mxGeometry relative="1" as="geometry" />
        </mxCell>
        <mxCell id="P5rdZ5vx_de0cUmey6Gz-26" value="&lt;font style=&quot;font-size: 22px;&quot; face=&quot;Garamond&quot;&gt;&lt;b style=&quot;&quot;&gt;Contiene&lt;/b&gt;&lt;/font&gt;" style="rhombus;whiteSpace=wrap;html=1;rounded=1;shadow=1;strokeWidth=1;fillColor=#ffe6cc;strokeColor=#d79b00;" parent="1" vertex="1">
          <mxGeometry x="100.00000000000001" y="777" width="148.58" height="82" as="geometry" />
        </mxCell>
        <mxCell id="P5rdZ5vx_de0cUmey6Gz-27" style="edgeStyle=orthogonalEdgeStyle;shape=connector;curved=0;rounded=1;orthogonalLoop=1;jettySize=auto;html=1;entryX=0;entryY=0.5;entryDx=0;entryDy=0;strokeColor=default;strokeWidth=2;align=center;verticalAlign=middle;fontFamily=Helvetica;fontSize=12;fontColor=default;labelBackgroundColor=default;endArrow=none;endFill=0;exitX=0.937;exitY=0.493;exitDx=0;exitDy=0;exitPerimeter=0;" parent="1" source="P5rdZ5vx_de0cUmey6Gz-28" target="P5rdZ5vx_de0cUmey6Gz-14" edge="1">
          <mxGeometry relative="1" as="geometry" />
        </mxCell>
        <mxCell id="P5rdZ5vx_de0cUmey6Gz-28" value="&lt;font style=&quot;font-size: 22px;&quot; face=&quot;Garamond&quot;&gt;&lt;b style=&quot;&quot;&gt;Tipologia&lt;/b&gt;&lt;/font&gt;" style="rhombus;whiteSpace=wrap;html=1;rounded=1;shadow=1;strokeWidth=1;fillColor=#ffe6cc;strokeColor=#d79b00;" parent="1" vertex="1">
          <mxGeometry x="41.000000000000036" y="1353.85" width="148.58" height="82" as="geometry" />
        </mxCell>
        <mxCell id="P5rdZ5vx_de0cUmey6Gz-29" style="edgeStyle=orthogonalEdgeStyle;shape=connector;curved=0;rounded=1;orthogonalLoop=1;jettySize=auto;html=1;entryX=0.704;entryY=-0.003;entryDx=0;entryDy=0;entryPerimeter=0;strokeColor=default;align=center;verticalAlign=middle;fontFamily=Helvetica;fontSize=12;fontColor=default;labelBackgroundColor=default;endArrow=none;endFill=0;strokeWidth=2;" parent="1" source="P5rdZ5vx_de0cUmey6Gz-26" target="P5rdZ5vx_de0cUmey6Gz-5" edge="1">
          <mxGeometry relative="1" as="geometry" />
        </mxCell>
        <mxCell id="P5rdZ5vx_de0cUmey6Gz-30" style="edgeStyle=orthogonalEdgeStyle;shape=connector;curved=0;rounded=1;orthogonalLoop=1;jettySize=auto;html=1;entryX=0.5;entryY=1;entryDx=0;entryDy=0;strokeColor=default;align=center;verticalAlign=middle;fontFamily=Helvetica;fontSize=12;fontColor=default;labelBackgroundColor=default;endArrow=none;endFill=0;strokeWidth=2;" parent="1" source="P5rdZ5vx_de0cUmey6Gz-32" target="P5rdZ5vx_de0cUmey6Gz-49" edge="1">
          <mxGeometry relative="1" as="geometry" />
        </mxCell>
        <mxCell id="P5rdZ5vx_de0cUmey6Gz-31" value="" style="edgeStyle=orthogonalEdgeStyle;shape=connector;curved=0;rounded=1;orthogonalLoop=1;jettySize=auto;html=1;strokeColor=default;strokeWidth=2;align=center;verticalAlign=middle;fontFamily=Helvetica;fontSize=12;fontColor=default;labelBackgroundColor=default;endArrow=none;endFill=0;" parent="1" source="P5rdZ5vx_de0cUmey6Gz-32" target="P5rdZ5vx_de0cUmey6Gz-13" edge="1">
          <mxGeometry relative="1" as="geometry" />
        </mxCell>
        <mxCell id="P5rdZ5vx_de0cUmey6Gz-32" value="&lt;font style=&quot;font-size: 22px;&quot; face=&quot;Garamond&quot;&gt;&lt;b style=&quot;&quot;&gt;Svolge&lt;/b&gt;&lt;/font&gt;" style="rhombus;whiteSpace=wrap;html=1;rounded=1;shadow=1;strokeWidth=1;fillColor=#ffe6cc;strokeColor=#d79b00;" parent="1" vertex="1">
          <mxGeometry x="-23.879999999999992" y="430" width="148.58" height="82" as="geometry" />
        </mxCell>
        <mxCell id="P5rdZ5vx_de0cUmey6Gz-33" value="&lt;font style=&quot;font-size: 22px;&quot; face=&quot;Garamond&quot;&gt;&lt;b style=&quot;&quot;&gt;Gestisce&lt;/b&gt;&lt;/font&gt;" style="rhombus;whiteSpace=wrap;html=1;rounded=1;shadow=1;strokeWidth=1;fillColor=#ffe6cc;strokeColor=#d79b00;" parent="1" vertex="1">
          <mxGeometry x="240.00000000000003" y="150" width="148.58" height="82" as="geometry" />
        </mxCell>
        <mxCell id="P5rdZ5vx_de0cUmey6Gz-34" style="edgeStyle=orthogonalEdgeStyle;shape=connector;curved=0;rounded=1;orthogonalLoop=1;jettySize=auto;html=1;strokeColor=default;align=center;verticalAlign=middle;fontFamily=Helvetica;fontSize=12;fontColor=default;labelBackgroundColor=default;endArrow=none;endFill=0;strokeWidth=2;entryX=0.25;entryY=0;entryDx=0;entryDy=0;" parent="1" target="P5rdZ5vx_de0cUmey6Gz-8" edge="1">
          <mxGeometry relative="1" as="geometry">
            <mxPoint x="314" y="230" as="sourcePoint" />
            <mxPoint x="290" y="490" as="targetPoint" />
          </mxGeometry>
        </mxCell>
        <mxCell id="P5rdZ5vx_de0cUmey6Gz-35" value="&lt;font style=&quot;font-size: 22px;&quot; face=&quot;Garamond&quot;&gt;&lt;b style=&quot;&quot;&gt;Prenota&lt;/b&gt;&lt;/font&gt;" style="rhombus;whiteSpace=wrap;html=1;rounded=1;shadow=1;strokeWidth=1;fillColor=#ffe6cc;strokeColor=#d79b00;" parent="1" vertex="1">
          <mxGeometry x="1124.76" y="390" width="148.58" height="82" as="geometry" />
        </mxCell>
        <mxCell id="P5rdZ5vx_de0cUmey6Gz-36" style="edgeStyle=orthogonalEdgeStyle;shape=connector;curved=0;rounded=1;orthogonalLoop=1;jettySize=auto;html=1;entryX=0.45;entryY=0;entryDx=0;entryDy=0;entryPerimeter=0;strokeColor=default;align=center;verticalAlign=middle;fontFamily=Helvetica;fontSize=12;fontColor=default;labelBackgroundColor=default;endArrow=none;endFill=0;strokeWidth=2;" parent="1" source="P5rdZ5vx_de0cUmey6Gz-35" target="P5rdZ5vx_de0cUmey6Gz-6" edge="1">
          <mxGeometry relative="1" as="geometry">
            <mxPoint x="879.9099999999999" y="620.0000000000001" as="targetPoint" />
          </mxGeometry>
        </mxCell>
        <mxCell id="P5rdZ5vx_de0cUmey6Gz-37" style="edgeStyle=orthogonalEdgeStyle;shape=connector;curved=0;rounded=1;orthogonalLoop=1;jettySize=auto;html=1;entryX=0.5;entryY=0;entryDx=0;entryDy=0;strokeColor=default;align=center;verticalAlign=middle;fontFamily=Helvetica;fontSize=12;fontColor=default;labelBackgroundColor=default;endArrow=none;endFill=0;strokeWidth=2;" parent="1" source="P5rdZ5vx_de0cUmey6Gz-38" target="P5rdZ5vx_de0cUmey6Gz-35" edge="1">
          <mxGeometry relative="1" as="geometry" />
        </mxCell>
        <mxCell id="P5rdZ5vx_de0cUmey6Gz-38" value="&lt;p&gt;&lt;font face=&quot;Times New Roman&quot;&gt;&lt;span style=&quot;font-size: 25px;&quot;&gt;Visita_Guidata&lt;/span&gt;&lt;/font&gt;&lt;/p&gt;" style="rounded=1;whiteSpace=wrap;html=1;shadow=1;fillColor=#d5e8d4;strokeColor=#82b366;" parent="1" vertex="1">
          <mxGeometry x="970" y="60" width="329.05" height="211" as="geometry" />
        </mxCell>
        <mxCell id="P5rdZ5vx_de0cUmey6Gz-39" style="edgeStyle=orthogonalEdgeStyle;shape=connector;curved=0;rounded=0;orthogonalLoop=1;jettySize=auto;html=1;strokeColor=default;align=center;verticalAlign=middle;fontFamily=Helvetica;fontSize=12;fontColor=default;labelBackgroundColor=default;endArrow=none;endFill=0;strokeWidth=2;entryX=1;entryY=0.25;entryDx=0;entryDy=0;endSize=6;startFill=1;" parent="1" source="P5rdZ5vx_de0cUmey6Gz-40" target="P5rdZ5vx_de0cUmey6Gz-52" edge="1">
          <mxGeometry relative="1" as="geometry">
            <mxPoint x="-80" y="95" as="targetPoint" />
          </mxGeometry>
        </mxCell>
        <mxCell id="P5rdZ5vx_de0cUmey6Gz-40" value="&lt;p&gt;&lt;font style=&quot;font-size: 25px;&quot; face=&quot;Times New Roman&quot;&gt;Guida&lt;/font&gt;&lt;/p&gt;" style="rounded=1;whiteSpace=wrap;html=1;shadow=1;fillColor=#d5e8d4;strokeColor=#82b366;" parent="1" vertex="1">
          <mxGeometry x="-49.99999999999999" y="-290" width="200" height="90" as="geometry" />
        </mxCell>
        <mxCell id="P5rdZ5vx_de0cUmey6Gz-41" style="edgeStyle=orthogonalEdgeStyle;shape=connector;curved=0;rounded=1;orthogonalLoop=1;jettySize=auto;html=1;entryX=0.5;entryY=0;entryDx=0;entryDy=0;strokeColor=default;align=center;verticalAlign=middle;fontFamily=Helvetica;fontSize=12;fontColor=default;labelBackgroundColor=default;endArrow=none;endFill=0;strokeWidth=2;exitX=0.964;exitY=0.505;exitDx=0;exitDy=0;exitPerimeter=0;" parent="1" source="P5rdZ5vx_de0cUmey6Gz-43" target="P5rdZ5vx_de0cUmey6Gz-38" edge="1">
          <mxGeometry relative="1" as="geometry" />
        </mxCell>
        <mxCell id="P5rdZ5vx_de0cUmey6Gz-42" style="edgeStyle=orthogonalEdgeStyle;shape=connector;curved=0;rounded=1;orthogonalLoop=1;jettySize=auto;html=1;entryX=1;entryY=0.5;entryDx=0;entryDy=0;strokeColor=default;align=center;verticalAlign=middle;fontFamily=Helvetica;fontSize=12;fontColor=default;labelBackgroundColor=default;endArrow=none;endFill=0;strokeWidth=2;exitX=0.037;exitY=0.505;exitDx=0;exitDy=0;exitPerimeter=0;" parent="1" source="P5rdZ5vx_de0cUmey6Gz-43" target="P5rdZ5vx_de0cUmey6Gz-40" edge="1">
          <mxGeometry relative="1" as="geometry" />
        </mxCell>
        <mxCell id="P5rdZ5vx_de0cUmey6Gz-43" value="&lt;font style=&quot;font-size: 22px;&quot; face=&quot;Garamond&quot;&gt;&lt;b style=&quot;&quot;&gt;Conduce&lt;/b&gt;&lt;/font&gt;" style="rhombus;whiteSpace=wrap;html=1;rounded=1;shadow=1;strokeWidth=1;fillColor=#ffe6cc;strokeColor=#d79b00;" parent="1" vertex="1">
          <mxGeometry x="570" y="-220" width="148.58" height="82" as="geometry" />
        </mxCell>
        <mxCell id="P5rdZ5vx_de0cUmey6Gz-44" value="&lt;font style=&quot;font-size: 22px;&quot; face=&quot;Garamond&quot;&gt;&lt;b style=&quot;&quot;&gt;Presenta&lt;/b&gt;&lt;/font&gt;" style="rhombus;whiteSpace=wrap;html=1;rounded=1;shadow=1;strokeWidth=1;fillColor=#ffe6cc;strokeColor=#d79b00;" parent="1" vertex="1">
          <mxGeometry x="365.71" y="478" width="148.58" height="82" as="geometry" />
        </mxCell>
        <mxCell id="P5rdZ5vx_de0cUmey6Gz-45" style="edgeStyle=orthogonalEdgeStyle;shape=connector;curved=0;rounded=1;orthogonalLoop=1;jettySize=auto;html=1;entryX=0.799;entryY=-0.004;entryDx=0;entryDy=0;entryPerimeter=0;strokeColor=default;align=center;verticalAlign=middle;fontFamily=Helvetica;fontSize=12;fontColor=default;labelBackgroundColor=default;endArrow=none;endFill=0;strokeWidth=2;" parent="1" source="P5rdZ5vx_de0cUmey6Gz-44" target="P5rdZ5vx_de0cUmey6Gz-8" edge="1">
          <mxGeometry relative="1" as="geometry" />
        </mxCell>
        <mxCell id="P5rdZ5vx_de0cUmey6Gz-46" style="edgeStyle=orthogonalEdgeStyle;shape=connector;curved=0;rounded=0;orthogonalLoop=1;jettySize=auto;html=1;entryX=1;entryY=0.75;entryDx=0;entryDy=0;strokeColor=default;align=center;verticalAlign=middle;fontFamily=Helvetica;fontSize=12;fontColor=default;labelBackgroundColor=default;endArrow=none;endFill=0;strokeWidth=2;endSize=6;startFill=1;" parent="1" source="P5rdZ5vx_de0cUmey6Gz-49" target="P5rdZ5vx_de0cUmey6Gz-52" edge="1">
          <mxGeometry relative="1" as="geometry" />
        </mxCell>
        <mxCell id="P5rdZ5vx_de0cUmey6Gz-47" style="edgeStyle=orthogonalEdgeStyle;shape=connector;curved=0;rounded=0;orthogonalLoop=1;jettySize=auto;html=1;entryX=1;entryY=0.75;entryDx=0;entryDy=0;strokeColor=default;align=center;verticalAlign=middle;fontFamily=Helvetica;fontSize=12;fontColor=default;labelBackgroundColor=default;endArrow=none;endFill=0;endSize=6;startFill=1;strokeWidth=2;" parent="1" source="P5rdZ5vx_de0cUmey6Gz-49" target="P5rdZ5vx_de0cUmey6Gz-52" edge="1">
          <mxGeometry relative="1" as="geometry" />
        </mxCell>
        <mxCell id="P5rdZ5vx_de0cUmey6Gz-48" style="edgeStyle=orthogonalEdgeStyle;shape=connector;curved=0;rounded=0;orthogonalLoop=1;jettySize=auto;html=1;entryX=1;entryY=0.75;entryDx=0;entryDy=0;strokeColor=default;align=center;verticalAlign=middle;fontFamily=Helvetica;fontSize=12;fontColor=default;labelBackgroundColor=default;endArrow=none;endFill=0;strokeWidth=2;endSize=6;startFill=1;" parent="1" source="P5rdZ5vx_de0cUmey6Gz-49" target="P5rdZ5vx_de0cUmey6Gz-52" edge="1">
          <mxGeometry relative="1" as="geometry" />
        </mxCell>
        <mxCell id="P5rdZ5vx_de0cUmey6Gz-49" value="&lt;p&gt;&lt;font style=&quot;font-size: 25px;&quot; face=&quot;Times New Roman&quot;&gt;Restauratore&lt;/font&gt;&lt;/p&gt;" style="rounded=1;whiteSpace=wrap;html=1;shadow=1;fillColor=#d5e8d4;strokeColor=#82b366;" parent="1" vertex="1">
          <mxGeometry x="-50" y="270" width="200" height="90" as="geometry" />
        </mxCell>
        <mxCell id="P5rdZ5vx_de0cUmey6Gz-50" value="&lt;p&gt;&lt;font style=&quot;font-size: 25px;&quot; face=&quot;Times New Roman&quot;&gt;Personale&lt;/font&gt;&lt;/p&gt;" style="rounded=1;whiteSpace=wrap;html=1;shadow=1;fillColor=#d5e8d4;strokeColor=#82b366;" parent="1" vertex="1">
          <mxGeometry x="-570" width="330.95" height="90" as="geometry" />
        </mxCell>
        <mxCell id="P5rdZ5vx_de0cUmey6Gz-51" value="" style="triangle;whiteSpace=wrap;html=1;rounded=1;shadow=1;strokeColor=default;align=center;verticalAlign=middle;fontFamily=Helvetica;fontSize=12;fontColor=default;fillColor=#000000;rotation=-180;" parent="1" vertex="1">
          <mxGeometry x="-239.05" y="20" width="31.9" height="50" as="geometry" />
        </mxCell>
        <mxCell id="P5rdZ5vx_de0cUmey6Gz-52" value="" style="rounded=0;whiteSpace=wrap;html=1;shadow=1;strokeColor=default;align=center;verticalAlign=middle;fontFamily=Helvetica;fontSize=12;fontColor=default;fillColor=default;" parent="1" vertex="1">
          <mxGeometry x="-207.15" y="35.25" width="107.15" height="19.5" as="geometry" />
        </mxCell>
        <mxCell id="P5rdZ5vx_de0cUmey6Gz-53" style="edgeStyle=orthogonalEdgeStyle;shape=connector;curved=0;rounded=1;orthogonalLoop=1;jettySize=auto;html=1;entryX=0;entryY=0.5;entryDx=0;entryDy=0;strokeColor=default;align=center;verticalAlign=middle;fontFamily=Helvetica;fontSize=12;fontColor=default;labelBackgroundColor=default;endArrow=none;endFill=0;strokeWidth=2;exitX=0.965;exitY=0.5;exitDx=0;exitDy=0;exitPerimeter=0;" parent="1" source="P5rdZ5vx_de0cUmey6Gz-55" target="P5rdZ5vx_de0cUmey6Gz-6" edge="1">
          <mxGeometry relative="1" as="geometry" />
        </mxCell>
        <mxCell id="P5rdZ5vx_de0cUmey6Gz-54" value="" style="edgeStyle=orthogonalEdgeStyle;shape=connector;curved=0;rounded=1;orthogonalLoop=1;jettySize=auto;html=1;strokeColor=default;strokeWidth=2;align=center;verticalAlign=middle;fontFamily=Helvetica;fontSize=12;fontColor=default;labelBackgroundColor=default;endArrow=none;endFill=0;exitX=0.029;exitY=0.496;exitDx=0;exitDy=0;exitPerimeter=0;targetPerimeterSpacing=0;sourcePerimeterSpacing=-5;startSize=5;" parent="1" source="P5rdZ5vx_de0cUmey6Gz-55" target="P5rdZ5vx_de0cUmey6Gz-8" edge="1">
          <mxGeometry relative="1" as="geometry" />
        </mxCell>
        <mxCell id="P5rdZ5vx_de0cUmey6Gz-55" value="&lt;font style=&quot;font-size: 22px;&quot; face=&quot;Garamond&quot;&gt;&lt;b style=&quot;&quot;&gt;Visita&lt;/b&gt;&lt;/font&gt;" style="rhombus;whiteSpace=wrap;html=1;rounded=1;shadow=1;strokeWidth=1;fillColor=#ffe6cc;strokeColor=#d79b00;" parent="1" vertex="1">
          <mxGeometry x="695.8399999999999" y="701" width="148.58" height="82" as="geometry" />
        </mxCell>
        <mxCell id="P5rdZ5vx_de0cUmey6Gz-56" style="edgeStyle=orthogonalEdgeStyle;shape=connector;curved=0;rounded=1;orthogonalLoop=1;jettySize=auto;html=1;entryX=0;entryY=0.5;entryDx=0;entryDy=0;strokeColor=default;align=center;verticalAlign=middle;fontFamily=Helvetica;fontSize=12;fontColor=default;labelBackgroundColor=default;endArrow=none;endFill=0;strokeWidth=2;exitX=0.985;exitY=0.507;exitDx=0;exitDy=0;exitPerimeter=0;" parent="1" source="P5rdZ5vx_de0cUmey6Gz-58" target="P5rdZ5vx_de0cUmey6Gz-9" edge="1">
          <mxGeometry relative="1" as="geometry" />
        </mxCell>
        <mxCell id="P5rdZ5vx_de0cUmey6Gz-57" value="" style="edgeStyle=orthogonalEdgeStyle;rounded=1;orthogonalLoop=1;jettySize=auto;html=1;curved=0;strokeColor=default;endArrow=none;endFill=0;strokeWidth=2;" parent="1" source="P5rdZ5vx_de0cUmey6Gz-58" target="P5rdZ5vx_de0cUmey6Gz-6" edge="1">
          <mxGeometry relative="1" as="geometry" />
        </mxCell>
        <mxCell id="P5rdZ5vx_de0cUmey6Gz-58" value="&lt;font style=&quot;font-size: 22px;&quot; face=&quot;Garamond&quot;&gt;&lt;b style=&quot;&quot;&gt;Lascia&lt;/b&gt;&lt;/font&gt;" style="rhombus;whiteSpace=wrap;html=1;rounded=1;shadow=1;strokeWidth=1;fillColor=#ffe6cc;strokeColor=#d79b00;" parent="1" vertex="1">
          <mxGeometry x="987.76" y="824" width="148.58" height="82" as="geometry" />
        </mxCell>
        <mxCell id="P5rdZ5vx_de0cUmey6Gz-59" style="edgeStyle=orthogonalEdgeStyle;shape=connector;curved=0;rounded=1;orthogonalLoop=1;jettySize=auto;html=1;entryX=0.25;entryY=1;entryDx=0;entryDy=0;strokeColor=default;align=center;verticalAlign=middle;fontFamily=Helvetica;fontSize=12;fontColor=default;labelBackgroundColor=default;endArrow=none;endFill=0;strokeWidth=2;" parent="1" source="P5rdZ5vx_de0cUmey6Gz-61" target="P5rdZ5vx_de0cUmey6Gz-6" edge="1">
          <mxGeometry relative="1" as="geometry" />
        </mxCell>
        <mxCell id="P5rdZ5vx_de0cUmey6Gz-60" value="" style="edgeStyle=orthogonalEdgeStyle;shape=connector;curved=0;rounded=1;orthogonalLoop=1;jettySize=auto;html=1;strokeColor=default;strokeWidth=2;align=center;verticalAlign=middle;fontFamily=Helvetica;fontSize=12;fontColor=default;labelBackgroundColor=default;endArrow=none;endFill=0;" parent="1" source="P5rdZ5vx_de0cUmey6Gz-61" target="P5rdZ5vx_de0cUmey6Gz-70" edge="1">
          <mxGeometry relative="1" as="geometry" />
        </mxCell>
        <mxCell id="P5rdZ5vx_de0cUmey6Gz-61" value="&lt;font style=&quot;font-size: 22px;&quot; face=&quot;Garamond&quot;&gt;&lt;b style=&quot;&quot;&gt;Acquista&lt;/b&gt;&lt;/font&gt;" style="rhombus;whiteSpace=wrap;html=1;rounded=1;shadow=1;strokeWidth=1;fillColor=#ffe6cc;strokeColor=#d79b00;" parent="1" vertex="1">
          <mxGeometry x="844.4200000000001" y="949" width="148.58" height="82" as="geometry" />
        </mxCell>
        <mxCell id="P5rdZ5vx_de0cUmey6Gz-62" style="edgeStyle=orthogonalEdgeStyle;shape=connector;curved=0;rounded=0;orthogonalLoop=1;jettySize=auto;html=1;entryX=1;entryY=0.5;entryDx=0;entryDy=0;strokeColor=default;align=center;verticalAlign=middle;fontFamily=Helvetica;fontSize=12;fontColor=default;labelBackgroundColor=default;endArrow=none;endFill=0;strokeWidth=2;" parent="1" source="P5rdZ5vx_de0cUmey6Gz-63" target="P5rdZ5vx_de0cUmey6Gz-72" edge="1">
          <mxGeometry relative="1" as="geometry" />
        </mxCell>
        <mxCell id="P5rdZ5vx_de0cUmey6Gz-63" value="&lt;p&gt;&lt;font style=&quot;font-size: 25px;&quot; face=&quot;Times New Roman&quot;&gt;Biglietto Festivo&lt;/font&gt;&lt;/p&gt;" style="rounded=1;whiteSpace=wrap;html=1;shadow=1;fillColor=#d5e8d4;strokeColor=#82b366;" parent="1" vertex="1">
          <mxGeometry x="1226.05" y="1235" width="200" height="90" as="geometry" />
        </mxCell>
        <mxCell id="P5rdZ5vx_de0cUmey6Gz-64" style="edgeStyle=orthogonalEdgeStyle;shape=connector;curved=0;rounded=0;orthogonalLoop=1;jettySize=auto;html=1;strokeColor=default;align=center;verticalAlign=middle;fontFamily=Helvetica;fontSize=12;fontColor=default;labelBackgroundColor=default;endArrow=none;endFill=0;strokeWidth=2;entryX=1;entryY=0.25;entryDx=0;entryDy=0;" parent="1" source="P5rdZ5vx_de0cUmey6Gz-65" target="P5rdZ5vx_de0cUmey6Gz-72" edge="1">
          <mxGeometry relative="1" as="geometry">
            <mxPoint x="1182.05" y="966" as="targetPoint" />
          </mxGeometry>
        </mxCell>
        <mxCell id="P5rdZ5vx_de0cUmey6Gz-65" value="&lt;p&gt;&lt;font style=&quot;font-size: 25px;&quot; face=&quot;Times New Roman&quot;&gt;Biglietto Feriale&lt;/font&gt;&lt;/p&gt;" style="rounded=1;whiteSpace=wrap;html=1;shadow=1;fillColor=#d5e8d4;strokeColor=#82b366;" parent="1" vertex="1">
          <mxGeometry x="1223.05" y="921" width="200" height="90" as="geometry" />
        </mxCell>
        <mxCell id="P5rdZ5vx_de0cUmey6Gz-66" style="edgeStyle=orthogonalEdgeStyle;shape=connector;curved=0;rounded=0;orthogonalLoop=1;jettySize=auto;html=1;entryX=1;entryY=0.75;entryDx=0;entryDy=0;strokeColor=none;align=center;verticalAlign=middle;fontFamily=Helvetica;fontSize=12;fontColor=default;labelBackgroundColor=default;endArrow=none;endFill=0;strokeWidth=11;" parent="1" source="P5rdZ5vx_de0cUmey6Gz-69" target="P5rdZ5vx_de0cUmey6Gz-72" edge="1">
          <mxGeometry relative="1" as="geometry" />
        </mxCell>
        <mxCell id="P5rdZ5vx_de0cUmey6Gz-67" style="edgeStyle=orthogonalEdgeStyle;shape=connector;curved=0;rounded=0;orthogonalLoop=1;jettySize=auto;html=1;entryX=1;entryY=0.75;entryDx=0;entryDy=0;strokeColor=none;align=center;verticalAlign=middle;fontFamily=Helvetica;fontSize=12;fontColor=default;labelBackgroundColor=default;endArrow=none;endFill=0;" parent="1" source="P5rdZ5vx_de0cUmey6Gz-69" target="P5rdZ5vx_de0cUmey6Gz-72" edge="1">
          <mxGeometry relative="1" as="geometry" />
        </mxCell>
        <mxCell id="P5rdZ5vx_de0cUmey6Gz-68" style="edgeStyle=orthogonalEdgeStyle;shape=connector;curved=0;rounded=0;orthogonalLoop=1;jettySize=auto;html=1;entryX=1;entryY=0.75;entryDx=0;entryDy=0;strokeColor=default;align=center;verticalAlign=middle;fontFamily=Helvetica;fontSize=12;fontColor=default;labelBackgroundColor=default;endArrow=none;endFill=0;strokeWidth=2;" parent="1" source="P5rdZ5vx_de0cUmey6Gz-69" target="P5rdZ5vx_de0cUmey6Gz-72" edge="1">
          <mxGeometry relative="1" as="geometry" />
        </mxCell>
        <mxCell id="P5rdZ5vx_de0cUmey6Gz-69" value="&lt;p&gt;&lt;font style=&quot;font-size: 25px;&quot; face=&quot;Times New Roman&quot;&gt;Abbonamento&lt;/font&gt;&lt;/p&gt;" style="rounded=1;whiteSpace=wrap;html=1;shadow=1;fillColor=#d5e8d4;strokeColor=#82b366;" parent="1" vertex="1">
          <mxGeometry x="1226.05" y="1530" width="200" height="90" as="geometry" />
        </mxCell>
        <mxCell id="P5rdZ5vx_de0cUmey6Gz-70" value="&lt;p&gt;&lt;font style=&quot;font-size: 25px;&quot; face=&quot;Times New Roman&quot;&gt;Biglietto&lt;/font&gt;&lt;/p&gt;" style="rounded=1;whiteSpace=wrap;html=1;shadow=1;fillColor=#d5e8d4;strokeColor=#82b366;" parent="1" vertex="1">
          <mxGeometry x="819" y="1235" width="200" height="90" as="geometry" />
        </mxCell>
        <mxCell id="P5rdZ5vx_de0cUmey6Gz-71" value="" style="triangle;whiteSpace=wrap;html=1;rounded=1;shadow=1;strokeColor=default;align=center;verticalAlign=middle;fontFamily=Helvetica;fontSize=12;fontColor=default;fillColor=#000000;rotation=-180;" parent="1" vertex="1">
          <mxGeometry x="1023" y="1255" width="31.9" height="50" as="geometry" />
        </mxCell>
        <mxCell id="P5rdZ5vx_de0cUmey6Gz-72" value="" style="rounded=0;whiteSpace=wrap;html=1;shadow=1;strokeColor=default;align=center;verticalAlign=middle;fontFamily=Helvetica;fontSize=12;fontColor=default;fillColor=default;" parent="1" vertex="1">
          <mxGeometry x="1054.8999999999999" y="1270.25" width="107.15" height="19.5" as="geometry" />
        </mxCell>
        <mxCell id="P5rdZ5vx_de0cUmey6Gz-73" value="" style="endArrow=none;html=1;rounded=0;" parent="1" target="P5rdZ5vx_de0cUmey6Gz-74" edge="1">
          <mxGeometry width="50" height="50" relative="1" as="geometry">
            <mxPoint x="275.28999999999996" y="1014" as="sourcePoint" />
            <mxPoint x="315.28999999999996" y="1014" as="targetPoint" />
          </mxGeometry>
        </mxCell>
        <mxCell id="P5rdZ5vx_de0cUmey6Gz-74" value="" style="ellipse;whiteSpace=wrap;html=1;aspect=fixed;strokeColor=#82b366;fillColor=#d5e8d4;gradientColor=#97d077;" parent="1" vertex="1">
          <mxGeometry x="305.28999999999996" y="1009" width="10" height="10" as="geometry" />
        </mxCell>
        <mxCell id="P5rdZ5vx_de0cUmey6Gz-75" value="" style="endArrow=none;html=1;rounded=0;" parent="1" edge="1">
          <mxGeometry width="50" height="50" relative="1" as="geometry">
            <mxPoint x="275.28999999999996" y="1031" as="sourcePoint" />
            <mxPoint x="305.28999999999996" y="1031" as="targetPoint" />
          </mxGeometry>
        </mxCell>
        <mxCell id="P5rdZ5vx_de0cUmey6Gz-76" value="" style="ellipse;whiteSpace=wrap;html=1;aspect=fixed;" parent="1" vertex="1">
          <mxGeometry x="305.28999999999996" y="1026" width="10" height="10" as="geometry" />
        </mxCell>
        <mxCell id="P5rdZ5vx_de0cUmey6Gz-77" value="" style="endArrow=none;html=1;rounded=0;" parent="1" target="P5rdZ5vx_de0cUmey6Gz-78" edge="1">
          <mxGeometry width="50" height="50" relative="1" as="geometry">
            <mxPoint x="275.28999999999996" y="1048" as="sourcePoint" />
            <mxPoint x="315.28999999999996" y="1048" as="targetPoint" />
          </mxGeometry>
        </mxCell>
        <mxCell id="P5rdZ5vx_de0cUmey6Gz-78" value="" style="ellipse;whiteSpace=wrap;html=1;aspect=fixed;" parent="1" vertex="1">
          <mxGeometry x="305.28999999999996" y="1043" width="10" height="10" as="geometry" />
        </mxCell>
        <mxCell id="P5rdZ5vx_de0cUmey6Gz-79" value="" style="endArrow=none;html=1;rounded=0;" parent="1" edge="1">
          <mxGeometry width="50" height="50" relative="1" as="geometry">
            <mxPoint x="275.28999999999996" y="1067" as="sourcePoint" />
            <mxPoint x="305.28999999999996" y="1067" as="targetPoint" />
          </mxGeometry>
        </mxCell>
        <mxCell id="P5rdZ5vx_de0cUmey6Gz-80" value="" style="ellipse;whiteSpace=wrap;html=1;aspect=fixed;" parent="1" vertex="1">
          <mxGeometry x="305.28999999999996" y="1061" width="10" height="10" as="geometry" />
        </mxCell>
        <mxCell id="P5rdZ5vx_de0cUmey6Gz-81" value="" style="endArrow=none;html=1;rounded=0;" parent="1" edge="1">
          <mxGeometry width="50" height="50" relative="1" as="geometry">
            <mxPoint x="275.28999999999996" y="1086" as="sourcePoint" />
            <mxPoint x="305.29000000004044" y="1086" as="targetPoint" />
          </mxGeometry>
        </mxCell>
        <mxCell id="P5rdZ5vx_de0cUmey6Gz-82" value="" style="ellipse;whiteSpace=wrap;html=1;aspect=fixed;" parent="1" vertex="1">
          <mxGeometry x="305.28999999999996" y="1081" width="10" height="10" as="geometry" />
        </mxCell>
        <mxCell id="P5rdZ5vx_de0cUmey6Gz-83" value="" style="endArrow=none;html=1;rounded=0;" parent="1" edge="1">
          <mxGeometry width="50" height="50" relative="1" as="geometry">
            <mxPoint x="275.28999999999996" y="1105" as="sourcePoint" />
            <mxPoint x="305.28999999999996" y="1105" as="targetPoint" />
          </mxGeometry>
        </mxCell>
        <mxCell id="P5rdZ5vx_de0cUmey6Gz-84" value="" style="ellipse;whiteSpace=wrap;html=1;aspect=fixed;" parent="1" vertex="1">
          <mxGeometry x="305.28999999999996" y="1100" width="10" height="10" as="geometry" />
        </mxCell>
        <mxCell id="P5rdZ5vx_de0cUmey6Gz-85" value="" style="endArrow=none;html=1;rounded=0;" parent="1" edge="1">
          <mxGeometry width="50" height="50" relative="1" as="geometry">
            <mxPoint x="275.28999999999996" y="1123" as="sourcePoint" />
            <mxPoint x="305.29000000004044" y="1123" as="targetPoint" />
          </mxGeometry>
        </mxCell>
        <mxCell id="P5rdZ5vx_de0cUmey6Gz-86" value="" style="ellipse;whiteSpace=wrap;html=1;aspect=fixed;" parent="1" vertex="1">
          <mxGeometry x="305.28999999999996" y="1117" width="10" height="10" as="geometry" />
        </mxCell>
        <mxCell id="P5rdZ5vx_de0cUmey6Gz-87" value="" style="endArrow=none;html=1;rounded=0;" parent="1" edge="1">
          <mxGeometry width="50" height="50" relative="1" as="geometry">
            <mxPoint x="274.28999999999996" y="1141" as="sourcePoint" />
            <mxPoint x="304.28999999999996" y="1141" as="targetPoint" />
          </mxGeometry>
        </mxCell>
        <mxCell id="P5rdZ5vx_de0cUmey6Gz-88" value="" style="ellipse;whiteSpace=wrap;html=1;aspect=fixed;" parent="1" vertex="1">
          <mxGeometry x="305.28999999999996" y="1135" width="10" height="10" as="geometry" />
        </mxCell>
        <mxCell id="P5rdZ5vx_de0cUmey6Gz-89" value="Id_opera" style="text;html=1;align=center;verticalAlign=middle;whiteSpace=wrap;rounded=0;" parent="1" vertex="1">
          <mxGeometry x="315.28999999999996" y="998" width="60" height="30" as="geometry" />
        </mxCell>
        <mxCell id="P5rdZ5vx_de0cUmey6Gz-90" value="Titolo" style="text;html=1;align=center;verticalAlign=middle;whiteSpace=wrap;rounded=0;" parent="1" vertex="1">
          <mxGeometry x="305.28999999999996" y="1015" width="60" height="30" as="geometry" />
        </mxCell>
        <mxCell id="P5rdZ5vx_de0cUmey6Gz-91" value="Data_pubblicazione" style="text;html=1;align=center;verticalAlign=middle;whiteSpace=wrap;rounded=0;" parent="1" vertex="1">
          <mxGeometry x="345.28999999999996" y="1033" width="60" height="30" as="geometry" />
        </mxCell>
        <mxCell id="P5rdZ5vx_de0cUmey6Gz-92" value="Tipologia" style="text;html=1;align=center;verticalAlign=middle;whiteSpace=wrap;rounded=0;" parent="1" vertex="1">
          <mxGeometry x="315.28999999999996" y="1051" width="60" height="30" as="geometry" />
        </mxCell>
        <mxCell id="P5rdZ5vx_de0cUmey6Gz-93" value="Descrizione" style="text;html=1;align=center;verticalAlign=middle;whiteSpace=wrap;rounded=0;" parent="1" vertex="1">
          <mxGeometry x="321.28999999999996" y="1071" width="60" height="30" as="geometry" />
        </mxCell>
        <mxCell id="P5rdZ5vx_de0cUmey6Gz-94" value="Categoria" style="text;html=1;align=center;verticalAlign=middle;whiteSpace=wrap;rounded=0;" parent="1" vertex="1">
          <mxGeometry x="315.28999999999996" y="1091" width="60" height="30" as="geometry" />
        </mxCell>
        <mxCell id="P5rdZ5vx_de0cUmey6Gz-95" value="Origine" style="text;html=1;align=center;verticalAlign=middle;whiteSpace=wrap;rounded=0;" parent="1" vertex="1">
          <mxGeometry x="308.28999999999996" y="1107" width="60" height="30" as="geometry" />
        </mxCell>
        <mxCell id="P5rdZ5vx_de0cUmey6Gz-96" value="Stato" style="text;html=1;align=center;verticalAlign=middle;whiteSpace=wrap;rounded=0;" parent="1" vertex="1">
          <mxGeometry x="303.28999999999996" y="1125" width="60" height="30" as="geometry" />
        </mxCell>
        <mxCell id="P5rdZ5vx_de0cUmey6Gz-97" value="" style="endArrow=none;html=1;rounded=0;entryX=0.078;entryY=1.035;entryDx=0;entryDy=0;entryPerimeter=0;" parent="1" edge="1">
          <mxGeometry width="50" height="50" relative="1" as="geometry">
            <mxPoint x="296" y="740" as="sourcePoint" />
            <mxPoint x="295.60000000000014" y="710.1499999999999" as="targetPoint" />
          </mxGeometry>
        </mxCell>
        <mxCell id="P5rdZ5vx_de0cUmey6Gz-98" value="" style="ellipse;whiteSpace=wrap;html=1;aspect=fixed;strokeColor=#82b366;fillColor=#d5e8d4;gradientColor=#97d077;" parent="1" vertex="1">
          <mxGeometry x="291" y="736" width="10" height="10" as="geometry" />
        </mxCell>
        <mxCell id="P5rdZ5vx_de0cUmey6Gz-99" value="" style="endArrow=none;html=1;rounded=0;entryX=0.078;entryY=1.035;entryDx=0;entryDy=0;entryPerimeter=0;" parent="1" edge="1">
          <mxGeometry width="50" height="50" relative="1" as="geometry">
            <mxPoint x="332" y="740" as="sourcePoint" />
            <mxPoint x="331.60000000000014" y="710.1499999999999" as="targetPoint" />
          </mxGeometry>
        </mxCell>
        <mxCell id="P5rdZ5vx_de0cUmey6Gz-100" value="" style="ellipse;whiteSpace=wrap;html=1;aspect=fixed;" parent="1" vertex="1">
          <mxGeometry x="327" y="736" width="10" height="10" as="geometry" />
        </mxCell>
        <mxCell id="P5rdZ5vx_de0cUmey6Gz-101" value="" style="endArrow=none;html=1;rounded=0;entryX=0.078;entryY=1.035;entryDx=0;entryDy=0;entryPerimeter=0;" parent="1" edge="1">
          <mxGeometry width="50" height="50" relative="1" as="geometry">
            <mxPoint x="374" y="740" as="sourcePoint" />
            <mxPoint x="373.60000000000014" y="710.1499999999999" as="targetPoint" />
          </mxGeometry>
        </mxCell>
        <mxCell id="P5rdZ5vx_de0cUmey6Gz-102" value="" style="ellipse;whiteSpace=wrap;html=1;aspect=fixed;" parent="1" vertex="1">
          <mxGeometry x="369" y="736" width="10" height="10" as="geometry" />
        </mxCell>
        <mxCell id="P5rdZ5vx_de0cUmey6Gz-103" value="" style="endArrow=none;html=1;rounded=0;entryX=0.078;entryY=1.035;entryDx=0;entryDy=0;entryPerimeter=0;" parent="1" edge="1">
          <mxGeometry width="50" height="50" relative="1" as="geometry">
            <mxPoint x="436" y="740" as="sourcePoint" />
            <mxPoint x="435.60000000000014" y="710.1499999999999" as="targetPoint" />
          </mxGeometry>
        </mxCell>
        <mxCell id="P5rdZ5vx_de0cUmey6Gz-104" value="" style="ellipse;whiteSpace=wrap;html=1;aspect=fixed;" parent="1" vertex="1">
          <mxGeometry x="431" y="736" width="10" height="10" as="geometry" />
        </mxCell>
        <mxCell id="P5rdZ5vx_de0cUmey6Gz-105" value="" style="endArrow=none;html=1;rounded=0;entryX=0.078;entryY=1.035;entryDx=0;entryDy=0;entryPerimeter=0;" parent="1" edge="1">
          <mxGeometry width="50" height="50" relative="1" as="geometry">
            <mxPoint x="490" y="740" as="sourcePoint" />
            <mxPoint x="489.60000000000014" y="710.1499999999999" as="targetPoint" />
          </mxGeometry>
        </mxCell>
        <mxCell id="P5rdZ5vx_de0cUmey6Gz-106" value="" style="ellipse;whiteSpace=wrap;html=1;aspect=fixed;" parent="1" vertex="1">
          <mxGeometry x="485" y="736" width="10" height="10" as="geometry" />
        </mxCell>
        <mxCell id="P5rdZ5vx_de0cUmey6Gz-107" value="" style="endArrow=none;html=1;rounded=0;entryX=0.078;entryY=1.035;entryDx=0;entryDy=0;entryPerimeter=0;" parent="1" edge="1">
          <mxGeometry width="50" height="50" relative="1" as="geometry">
            <mxPoint x="559" y="740" as="sourcePoint" />
            <mxPoint x="558.6000000000001" y="710.1499999999999" as="targetPoint" />
          </mxGeometry>
        </mxCell>
        <mxCell id="P5rdZ5vx_de0cUmey6Gz-108" value="" style="ellipse;whiteSpace=wrap;html=1;aspect=fixed;" parent="1" vertex="1">
          <mxGeometry x="554" y="736" width="10" height="10" as="geometry" />
        </mxCell>
        <mxCell id="P5rdZ5vx_de0cUmey6Gz-109" value="Id_mostra" style="text;html=1;align=center;verticalAlign=middle;whiteSpace=wrap;rounded=0;" parent="1" vertex="1">
          <mxGeometry x="248.57999999999998" y="737" width="60" height="30" as="geometry" />
        </mxCell>
        <mxCell id="P5rdZ5vx_de0cUmey6Gz-110" value="Titolo" style="text;html=1;align=center;verticalAlign=middle;whiteSpace=wrap;rounded=0;" parent="1" vertex="1">
          <mxGeometry x="302" y="737" width="60" height="30" as="geometry" />
        </mxCell>
        <mxCell id="P5rdZ5vx_de0cUmey6Gz-111" value="Data&lt;div&gt;inizio&lt;/div&gt;" style="text;html=1;align=center;verticalAlign=middle;whiteSpace=wrap;rounded=0;" parent="1" vertex="1">
          <mxGeometry x="346" y="750" width="60" height="22" as="geometry" />
        </mxCell>
        <mxCell id="P5rdZ5vx_de0cUmey6Gz-112" value="Data&lt;div&gt;fine&lt;/div&gt;" style="text;html=1;align=center;verticalAlign=middle;whiteSpace=wrap;rounded=0;" parent="1" vertex="1">
          <mxGeometry x="406" y="750" width="60" height="22" as="geometry" />
        </mxCell>
        <mxCell id="P5rdZ5vx_de0cUmey6Gz-113" value="Descrizione" style="text;html=1;align=center;verticalAlign=middle;whiteSpace=wrap;rounded=0;" parent="1" vertex="1">
          <mxGeometry x="460" y="742" width="60" height="30" as="geometry" />
        </mxCell>
        <mxCell id="P5rdZ5vx_de0cUmey6Gz-114" value="Capacità&lt;div&gt;massima&lt;/div&gt;" style="text;html=1;align=center;verticalAlign=middle;whiteSpace=wrap;rounded=0;" parent="1" vertex="1">
          <mxGeometry x="534" y="746" width="60" height="30" as="geometry" />
        </mxCell>
        <mxCell id="P5rdZ5vx_de0cUmey6Gz-115" value="" style="endArrow=none;html=1;rounded=0;" parent="1" target="P5rdZ5vx_de0cUmey6Gz-116" edge="1">
          <mxGeometry width="50" height="50" relative="1" as="geometry">
            <mxPoint x="1162.05" y="596" as="sourcePoint" />
            <mxPoint x="1202.05" y="596" as="targetPoint" />
          </mxGeometry>
        </mxCell>
        <mxCell id="P5rdZ5vx_de0cUmey6Gz-116" value="" style="ellipse;whiteSpace=wrap;html=1;aspect=fixed;strokeColor=#82b366;fillColor=#d5e8d4;gradientColor=#97d077;" parent="1" vertex="1">
          <mxGeometry x="1192.05" y="591" width="10" height="10" as="geometry" />
        </mxCell>
        <mxCell id="P5rdZ5vx_de0cUmey6Gz-117" value="" style="endArrow=none;html=1;rounded=0;" parent="1" edge="1">
          <mxGeometry width="50" height="50" relative="1" as="geometry">
            <mxPoint x="1162.05" y="613" as="sourcePoint" />
            <mxPoint x="1192.05" y="613" as="targetPoint" />
          </mxGeometry>
        </mxCell>
        <mxCell id="P5rdZ5vx_de0cUmey6Gz-118" value="" style="ellipse;whiteSpace=wrap;html=1;aspect=fixed;" parent="1" vertex="1">
          <mxGeometry x="1192.05" y="608" width="10" height="10" as="geometry" />
        </mxCell>
        <mxCell id="P5rdZ5vx_de0cUmey6Gz-119" value="" style="endArrow=none;html=1;rounded=0;" parent="1" target="P5rdZ5vx_de0cUmey6Gz-120" edge="1">
          <mxGeometry width="50" height="50" relative="1" as="geometry">
            <mxPoint x="1162.05" y="630" as="sourcePoint" />
            <mxPoint x="1202.05" y="630" as="targetPoint" />
          </mxGeometry>
        </mxCell>
        <mxCell id="P5rdZ5vx_de0cUmey6Gz-120" value="" style="ellipse;whiteSpace=wrap;html=1;aspect=fixed;" parent="1" vertex="1">
          <mxGeometry x="1192.05" y="625" width="10" height="10" as="geometry" />
        </mxCell>
        <mxCell id="P5rdZ5vx_de0cUmey6Gz-121" value="" style="endArrow=none;html=1;rounded=0;" parent="1" edge="1">
          <mxGeometry width="50" height="50" relative="1" as="geometry">
            <mxPoint x="1162.05" y="649" as="sourcePoint" />
            <mxPoint x="1192.05" y="649" as="targetPoint" />
          </mxGeometry>
        </mxCell>
        <mxCell id="P5rdZ5vx_de0cUmey6Gz-122" value="" style="ellipse;whiteSpace=wrap;html=1;aspect=fixed;" parent="1" vertex="1">
          <mxGeometry x="1192.05" y="643" width="10" height="10" as="geometry" />
        </mxCell>
        <mxCell id="P5rdZ5vx_de0cUmey6Gz-123" value="" style="endArrow=none;html=1;rounded=0;" parent="1" edge="1">
          <mxGeometry width="50" height="50" relative="1" as="geometry">
            <mxPoint x="1162.05" y="668" as="sourcePoint" />
            <mxPoint x="1192.0500000000404" y="668" as="targetPoint" />
          </mxGeometry>
        </mxCell>
        <mxCell id="P5rdZ5vx_de0cUmey6Gz-124" value="" style="ellipse;whiteSpace=wrap;html=1;aspect=fixed;" parent="1" vertex="1">
          <mxGeometry x="1192.05" y="663" width="10" height="10" as="geometry" />
        </mxCell>
        <mxCell id="P5rdZ5vx_de0cUmey6Gz-125" value="" style="endArrow=none;html=1;rounded=0;" parent="1" edge="1">
          <mxGeometry width="50" height="50" relative="1" as="geometry">
            <mxPoint x="1162.05" y="687" as="sourcePoint" />
            <mxPoint x="1192.05" y="687" as="targetPoint" />
          </mxGeometry>
        </mxCell>
        <mxCell id="P5rdZ5vx_de0cUmey6Gz-126" value="" style="ellipse;whiteSpace=wrap;html=1;aspect=fixed;" parent="1" vertex="1">
          <mxGeometry x="1192.05" y="682" width="10" height="10" as="geometry" />
        </mxCell>
        <mxCell id="P5rdZ5vx_de0cUmey6Gz-127" value="Id_visitatore" style="text;html=1;align=center;verticalAlign=middle;whiteSpace=wrap;rounded=0;" parent="1" vertex="1">
          <mxGeometry x="1210.05" y="580" width="60" height="30" as="geometry" />
        </mxCell>
        <mxCell id="P5rdZ5vx_de0cUmey6Gz-128" value="Nome" style="text;html=1;align=center;verticalAlign=middle;whiteSpace=wrap;rounded=0;" parent="1" vertex="1">
          <mxGeometry x="1192.05" y="597" width="60" height="30" as="geometry" />
        </mxCell>
        <mxCell id="P5rdZ5vx_de0cUmey6Gz-129" value="Cognome" style="text;html=1;align=center;verticalAlign=middle;whiteSpace=wrap;rounded=0;" parent="1" vertex="1">
          <mxGeometry x="1201.05" y="615" width="60" height="30" as="geometry" />
        </mxCell>
        <mxCell id="P5rdZ5vx_de0cUmey6Gz-130" value="Data_Nascita" style="text;html=1;align=center;verticalAlign=middle;whiteSpace=wrap;rounded=0;" parent="1" vertex="1">
          <mxGeometry x="1212.05" y="633" width="60" height="30" as="geometry" />
        </mxCell>
        <mxCell id="P5rdZ5vx_de0cUmey6Gz-131" value="Email" style="text;html=1;align=center;verticalAlign=middle;whiteSpace=wrap;rounded=0;" parent="1" vertex="1">
          <mxGeometry x="1191.05" y="653" width="60" height="30" as="geometry" />
        </mxCell>
        <mxCell id="P5rdZ5vx_de0cUmey6Gz-132" value="Telefono" style="text;html=1;align=center;verticalAlign=middle;whiteSpace=wrap;rounded=0;" parent="1" vertex="1">
          <mxGeometry x="1202.05" y="673" width="60" height="30" as="geometry" />
        </mxCell>
        <mxCell id="P5rdZ5vx_de0cUmey6Gz-133" value="" style="endArrow=none;html=1;rounded=0;" parent="1" target="P5rdZ5vx_de0cUmey6Gz-134" edge="1">
          <mxGeometry width="50" height="50" relative="1" as="geometry">
            <mxPoint x="1423" y="771" as="sourcePoint" />
            <mxPoint x="1463" y="771" as="targetPoint" />
          </mxGeometry>
        </mxCell>
        <mxCell id="P5rdZ5vx_de0cUmey6Gz-134" value="" style="ellipse;whiteSpace=wrap;html=1;aspect=fixed;strokeColor=#82b366;fillColor=#d5e8d4;gradientColor=#97d077;" parent="1" vertex="1">
          <mxGeometry x="1453" y="766" width="10" height="10" as="geometry" />
        </mxCell>
        <mxCell id="P5rdZ5vx_de0cUmey6Gz-135" value="" style="endArrow=none;html=1;rounded=0;" parent="1" edge="1">
          <mxGeometry width="50" height="50" relative="1" as="geometry">
            <mxPoint x="1423" y="788" as="sourcePoint" />
            <mxPoint x="1453" y="788" as="targetPoint" />
          </mxGeometry>
        </mxCell>
        <mxCell id="P5rdZ5vx_de0cUmey6Gz-136" value="" style="ellipse;whiteSpace=wrap;html=1;aspect=fixed;" parent="1" vertex="1">
          <mxGeometry x="1453" y="783" width="10" height="10" as="geometry" />
        </mxCell>
        <mxCell id="P5rdZ5vx_de0cUmey6Gz-137" value="" style="endArrow=none;html=1;rounded=0;" parent="1" target="P5rdZ5vx_de0cUmey6Gz-138" edge="1">
          <mxGeometry width="50" height="50" relative="1" as="geometry">
            <mxPoint x="1423" y="805" as="sourcePoint" />
            <mxPoint x="1463" y="805" as="targetPoint" />
          </mxGeometry>
        </mxCell>
        <mxCell id="P5rdZ5vx_de0cUmey6Gz-138" value="" style="ellipse;whiteSpace=wrap;html=1;aspect=fixed;" parent="1" vertex="1">
          <mxGeometry x="1453" y="800" width="10" height="10" as="geometry" />
        </mxCell>
        <mxCell id="P5rdZ5vx_de0cUmey6Gz-139" value="" style="endArrow=none;html=1;rounded=0;" parent="1" edge="1">
          <mxGeometry width="50" height="50" relative="1" as="geometry">
            <mxPoint x="1423" y="824" as="sourcePoint" />
            <mxPoint x="1453" y="824" as="targetPoint" />
          </mxGeometry>
        </mxCell>
        <mxCell id="P5rdZ5vx_de0cUmey6Gz-140" value="" style="ellipse;whiteSpace=wrap;html=1;aspect=fixed;" parent="1" vertex="1">
          <mxGeometry x="1453" y="818" width="10" height="10" as="geometry" />
        </mxCell>
        <mxCell id="P5rdZ5vx_de0cUmey6Gz-141" value="Id_feedback" style="text;html=1;align=center;verticalAlign=middle;whiteSpace=wrap;rounded=0;" parent="1" vertex="1">
          <mxGeometry x="1469" y="756" width="60" height="30" as="geometry" />
        </mxCell>
        <mxCell id="P5rdZ5vx_de0cUmey6Gz-142" value="Data_invio" style="text;html=1;align=center;verticalAlign=middle;whiteSpace=wrap;rounded=0;" parent="1" vertex="1">
          <mxGeometry x="1465" y="773" width="60" height="30" as="geometry" />
        </mxCell>
        <mxCell id="P5rdZ5vx_de0cUmey6Gz-143" value="Valutazione" style="text;html=1;align=center;verticalAlign=middle;whiteSpace=wrap;rounded=0;" parent="1" vertex="1">
          <mxGeometry x="1467" y="791" width="60" height="30" as="geometry" />
        </mxCell>
        <mxCell id="P5rdZ5vx_de0cUmey6Gz-144" value="Commento" style="text;html=1;align=center;verticalAlign=middle;whiteSpace=wrap;rounded=0;" parent="1" vertex="1">
          <mxGeometry x="1466" y="808" width="60" height="30" as="geometry" />
        </mxCell>
        <mxCell id="P5rdZ5vx_de0cUmey6Gz-145" value="" style="ellipse;whiteSpace=wrap;html=1;aspect=fixed;strokeColor=#82b366;fillColor=#d5e8d4;gradientColor=#97d077;" parent="1" vertex="1">
          <mxGeometry x="-523" y="-50" width="10" height="10" as="geometry" />
        </mxCell>
        <mxCell id="P5rdZ5vx_de0cUmey6Gz-146" value="" style="endArrow=none;html=1;rounded=0;" parent="1" edge="1">
          <mxGeometry width="50" height="50" relative="1" as="geometry">
            <mxPoint x="-518" as="sourcePoint" />
            <mxPoint x="-518" y="-40" as="targetPoint" />
          </mxGeometry>
        </mxCell>
        <mxCell id="P5rdZ5vx_de0cUmey6Gz-147" value="" style="endArrow=none;html=1;rounded=0;" parent="1" edge="1">
          <mxGeometry width="50" height="50" relative="1" as="geometry">
            <mxPoint x="-458" as="sourcePoint" />
            <mxPoint x="-458" y="-40" as="targetPoint" />
          </mxGeometry>
        </mxCell>
        <mxCell id="P5rdZ5vx_de0cUmey6Gz-148" value="" style="ellipse;whiteSpace=wrap;html=1;aspect=fixed;" parent="1" vertex="1">
          <mxGeometry x="-463" y="-50" width="10" height="10" as="geometry" />
        </mxCell>
        <mxCell id="P5rdZ5vx_de0cUmey6Gz-149" value="" style="endArrow=none;html=1;rounded=0;" parent="1" edge="1">
          <mxGeometry width="50" height="50" relative="1" as="geometry">
            <mxPoint x="-404" as="sourcePoint" />
            <mxPoint x="-404" y="-40" as="targetPoint" />
          </mxGeometry>
        </mxCell>
        <mxCell id="P5rdZ5vx_de0cUmey6Gz-150" value="" style="ellipse;whiteSpace=wrap;html=1;aspect=fixed;" parent="1" vertex="1">
          <mxGeometry x="-409" y="-50" width="10" height="10" as="geometry" />
        </mxCell>
        <mxCell id="P5rdZ5vx_de0cUmey6Gz-151" value="Id_personale" style="text;html=1;align=center;verticalAlign=middle;whiteSpace=wrap;rounded=0;" parent="1" vertex="1">
          <mxGeometry x="-550" y="-80" width="60" height="30" as="geometry" />
        </mxCell>
        <mxCell id="P5rdZ5vx_de0cUmey6Gz-152" value="Nome" style="text;html=1;align=center;verticalAlign=middle;whiteSpace=wrap;rounded=0;" parent="1" vertex="1">
          <mxGeometry x="-488" y="-80" width="60" height="30" as="geometry" />
        </mxCell>
        <mxCell id="P5rdZ5vx_de0cUmey6Gz-153" value="Cognome" style="text;html=1;align=center;verticalAlign=middle;whiteSpace=wrap;rounded=0;" parent="1" vertex="1">
          <mxGeometry x="-436" y="-80" width="60" height="30" as="geometry" />
        </mxCell>
        <mxCell id="P5rdZ5vx_de0cUmey6Gz-154" value="" style="endArrow=none;html=1;rounded=0;" parent="1" edge="1">
          <mxGeometry width="50" height="50" relative="1" as="geometry">
            <mxPoint x="-347" as="sourcePoint" />
            <mxPoint x="-347" y="-40" as="targetPoint" />
          </mxGeometry>
        </mxCell>
        <mxCell id="P5rdZ5vx_de0cUmey6Gz-155" value="" style="ellipse;whiteSpace=wrap;html=1;aspect=fixed;" parent="1" vertex="1">
          <mxGeometry x="-352" y="-50" width="10" height="10" as="geometry" />
        </mxCell>
        <mxCell id="P5rdZ5vx_de0cUmey6Gz-156" value="" style="endArrow=none;html=1;rounded=0;" parent="1" edge="1">
          <mxGeometry width="50" height="50" relative="1" as="geometry">
            <mxPoint x="-293" as="sourcePoint" />
            <mxPoint x="-293" y="-40" as="targetPoint" />
          </mxGeometry>
        </mxCell>
        <mxCell id="P5rdZ5vx_de0cUmey6Gz-157" value="" style="ellipse;whiteSpace=wrap;html=1;aspect=fixed;" parent="1" vertex="1">
          <mxGeometry x="-298" y="-50" width="10" height="10" as="geometry" />
        </mxCell>
        <mxCell id="P5rdZ5vx_de0cUmey6Gz-158" value="Numero&lt;div&gt;telefono&lt;/div&gt;" style="text;html=1;align=center;verticalAlign=middle;whiteSpace=wrap;rounded=0;" parent="1" vertex="1">
          <mxGeometry x="-373" y="-80" width="60" height="30" as="geometry" />
        </mxCell>
        <mxCell id="P5rdZ5vx_de0cUmey6Gz-159" value="Email" style="text;html=1;align=center;verticalAlign=middle;whiteSpace=wrap;rounded=0;" parent="1" vertex="1">
          <mxGeometry x="-323" y="-80" width="60" height="30" as="geometry" />
        </mxCell>
        <mxCell id="P5rdZ5vx_de0cUmey6Gz-160" value="" style="endArrow=none;html=1;rounded=0;entryX=0.078;entryY=1.035;entryDx=0;entryDy=0;entryPerimeter=0;" parent="1" edge="1">
          <mxGeometry width="50" height="50" relative="1" as="geometry">
            <mxPoint x="-602.5300000000001" y="1109" as="sourcePoint" />
            <mxPoint x="-602.93" y="1079.15" as="targetPoint" />
          </mxGeometry>
        </mxCell>
        <mxCell id="P5rdZ5vx_de0cUmey6Gz-161" value="" style="ellipse;whiteSpace=wrap;html=1;aspect=fixed;strokeColor=#82b366;fillColor=#d5e8d4;gradientColor=#97d077;" parent="1" vertex="1">
          <mxGeometry x="-607.5300000000001" y="1108" width="10" height="10" as="geometry" />
        </mxCell>
        <mxCell id="P5rdZ5vx_de0cUmey6Gz-162" value="" style="endArrow=none;html=1;rounded=0;entryX=0.078;entryY=1.035;entryDx=0;entryDy=0;entryPerimeter=0;" parent="1" edge="1">
          <mxGeometry width="50" height="50" relative="1" as="geometry">
            <mxPoint x="-543.53" y="1109" as="sourcePoint" />
            <mxPoint x="-543.9299999999998" y="1079.15" as="targetPoint" />
          </mxGeometry>
        </mxCell>
        <mxCell id="P5rdZ5vx_de0cUmey6Gz-163" value="" style="ellipse;whiteSpace=wrap;html=1;aspect=fixed;" parent="1" vertex="1">
          <mxGeometry x="-548.53" y="1105" width="10" height="10" as="geometry" />
        </mxCell>
        <mxCell id="P5rdZ5vx_de0cUmey6Gz-164" value="" style="endArrow=none;html=1;rounded=0;entryX=0.078;entryY=1.035;entryDx=0;entryDy=0;entryPerimeter=0;" parent="1" edge="1">
          <mxGeometry width="50" height="50" relative="1" as="geometry">
            <mxPoint x="-482.53000000000003" y="1109" as="sourcePoint" />
            <mxPoint x="-482.9299999999999" y="1079.15" as="targetPoint" />
          </mxGeometry>
        </mxCell>
        <mxCell id="P5rdZ5vx_de0cUmey6Gz-165" value="" style="ellipse;whiteSpace=wrap;html=1;aspect=fixed;" parent="1" vertex="1">
          <mxGeometry x="-487.53000000000003" y="1105" width="10" height="10" as="geometry" />
        </mxCell>
        <mxCell id="P5rdZ5vx_de0cUmey6Gz-166" value="Id_magazzino" style="text;html=1;align=center;verticalAlign=middle;whiteSpace=wrap;rounded=0;" parent="1" vertex="1">
          <mxGeometry x="-634.95" y="1113" width="60" height="30" as="geometry" />
        </mxCell>
        <mxCell id="P5rdZ5vx_de0cUmey6Gz-167" value="Nome" style="text;html=1;align=center;verticalAlign=middle;whiteSpace=wrap;rounded=0;" parent="1" vertex="1">
          <mxGeometry x="-571.95" y="1113" width="60" height="30" as="geometry" />
        </mxCell>
        <mxCell id="P5rdZ5vx_de0cUmey6Gz-168" value="Capacità" style="text;html=1;align=center;verticalAlign=middle;whiteSpace=wrap;rounded=0;" parent="1" vertex="1">
          <mxGeometry x="-510.53000000000003" y="1119" width="60" height="22" as="geometry" />
        </mxCell>
        <mxCell id="P5rdZ5vx_de0cUmey6Gz-169" value="" style="ellipse;whiteSpace=wrap;html=1;aspect=fixed;strokeColor=#82b366;fillColor=#d5e8d4;gradientColor=#97d077;" parent="1" vertex="1">
          <mxGeometry x="427" y="260" width="10" height="10" as="geometry" />
        </mxCell>
        <mxCell id="P5rdZ5vx_de0cUmey6Gz-170" value="" style="endArrow=none;html=1;rounded=0;" parent="1" edge="1">
          <mxGeometry width="50" height="50" relative="1" as="geometry">
            <mxPoint x="432" y="310" as="sourcePoint" />
            <mxPoint x="432" y="270" as="targetPoint" />
          </mxGeometry>
        </mxCell>
        <mxCell id="P5rdZ5vx_de0cUmey6Gz-171" value="" style="endArrow=none;html=1;rounded=0;" parent="1" edge="1">
          <mxGeometry width="50" height="50" relative="1" as="geometry">
            <mxPoint x="492" y="310" as="sourcePoint" />
            <mxPoint x="492" y="270" as="targetPoint" />
          </mxGeometry>
        </mxCell>
        <mxCell id="P5rdZ5vx_de0cUmey6Gz-172" value="" style="ellipse;whiteSpace=wrap;html=1;aspect=fixed;" parent="1" vertex="1">
          <mxGeometry x="487" y="260" width="10" height="10" as="geometry" />
        </mxCell>
        <mxCell id="P5rdZ5vx_de0cUmey6Gz-173" value="" style="endArrow=none;html=1;rounded=0;" parent="1" edge="1">
          <mxGeometry width="50" height="50" relative="1" as="geometry">
            <mxPoint x="546" y="310" as="sourcePoint" />
            <mxPoint x="546" y="270" as="targetPoint" />
          </mxGeometry>
        </mxCell>
        <mxCell id="P5rdZ5vx_de0cUmey6Gz-174" value="" style="ellipse;whiteSpace=wrap;html=1;aspect=fixed;" parent="1" vertex="1">
          <mxGeometry x="541" y="260" width="10" height="10" as="geometry" />
        </mxCell>
        <mxCell id="P5rdZ5vx_de0cUmey6Gz-175" value="Id_evento" style="text;html=1;align=center;verticalAlign=middle;whiteSpace=wrap;rounded=0;" parent="1" vertex="1">
          <mxGeometry x="400" y="230" width="60" height="30" as="geometry" />
        </mxCell>
        <mxCell id="P5rdZ5vx_de0cUmey6Gz-176" value="Titolo" style="text;html=1;align=center;verticalAlign=middle;whiteSpace=wrap;rounded=0;" parent="1" vertex="1">
          <mxGeometry x="462" y="230" width="60" height="30" as="geometry" />
        </mxCell>
        <mxCell id="P5rdZ5vx_de0cUmey6Gz-177" value="" style="endArrow=none;html=1;rounded=0;" parent="1" edge="1">
          <mxGeometry width="50" height="50" relative="1" as="geometry">
            <mxPoint x="603" y="310" as="sourcePoint" />
            <mxPoint x="603" y="270" as="targetPoint" />
          </mxGeometry>
        </mxCell>
        <mxCell id="P5rdZ5vx_de0cUmey6Gz-178" value="" style="ellipse;whiteSpace=wrap;html=1;aspect=fixed;" parent="1" vertex="1">
          <mxGeometry x="598" y="260" width="10" height="10" as="geometry" />
        </mxCell>
        <mxCell id="P5rdZ5vx_de0cUmey6Gz-179" value="" style="endArrow=none;html=1;rounded=0;" parent="1" edge="1">
          <mxGeometry width="50" height="50" relative="1" as="geometry">
            <mxPoint x="649" y="310" as="sourcePoint" />
            <mxPoint x="649" y="270" as="targetPoint" />
          </mxGeometry>
        </mxCell>
        <mxCell id="P5rdZ5vx_de0cUmey6Gz-180" value="" style="ellipse;whiteSpace=wrap;html=1;aspect=fixed;" parent="1" vertex="1">
          <mxGeometry x="644" y="260" width="10" height="10" as="geometry" />
        </mxCell>
        <mxCell id="P5rdZ5vx_de0cUmey6Gz-181" value="" style="endArrow=none;html=1;rounded=0;" parent="1" target="P5rdZ5vx_de0cUmey6Gz-182" edge="1">
          <mxGeometry width="50" height="50" relative="1" as="geometry">
            <mxPoint x="-128.29000000000002" y="617" as="sourcePoint" />
            <mxPoint x="-88.29000000000002" y="617" as="targetPoint" />
          </mxGeometry>
        </mxCell>
        <mxCell id="P5rdZ5vx_de0cUmey6Gz-182" value="" style="ellipse;whiteSpace=wrap;html=1;aspect=fixed;strokeColor=#82b366;fillColor=#d5e8d4;gradientColor=#97d077;" parent="1" vertex="1">
          <mxGeometry x="-98.29000000000002" y="612" width="10" height="10" as="geometry" />
        </mxCell>
        <mxCell id="P5rdZ5vx_de0cUmey6Gz-183" value="" style="endArrow=none;html=1;rounded=0;" parent="1" edge="1">
          <mxGeometry width="50" height="50" relative="1" as="geometry">
            <mxPoint x="-128.29000000000002" y="634" as="sourcePoint" />
            <mxPoint x="-98.29000000000002" y="634" as="targetPoint" />
          </mxGeometry>
        </mxCell>
        <mxCell id="P5rdZ5vx_de0cUmey6Gz-184" value="" style="ellipse;whiteSpace=wrap;html=1;aspect=fixed;" parent="1" vertex="1">
          <mxGeometry x="-98.29000000000002" y="629" width="10" height="10" as="geometry" />
        </mxCell>
        <mxCell id="P5rdZ5vx_de0cUmey6Gz-185" value="" style="endArrow=none;html=1;rounded=0;" parent="1" target="P5rdZ5vx_de0cUmey6Gz-186" edge="1">
          <mxGeometry width="50" height="50" relative="1" as="geometry">
            <mxPoint x="-128.29000000000002" y="651" as="sourcePoint" />
            <mxPoint x="-88.29000000000002" y="651" as="targetPoint" />
          </mxGeometry>
        </mxCell>
        <mxCell id="P5rdZ5vx_de0cUmey6Gz-186" value="" style="ellipse;whiteSpace=wrap;html=1;aspect=fixed;" parent="1" vertex="1">
          <mxGeometry x="-98.29000000000002" y="646" width="10" height="10" as="geometry" />
        </mxCell>
        <mxCell id="P5rdZ5vx_de0cUmey6Gz-187" value="" style="endArrow=none;html=1;rounded=0;" parent="1" edge="1">
          <mxGeometry width="50" height="50" relative="1" as="geometry">
            <mxPoint x="-128.29000000000002" y="670" as="sourcePoint" />
            <mxPoint x="-98.29000000000002" y="670" as="targetPoint" />
          </mxGeometry>
        </mxCell>
        <mxCell id="P5rdZ5vx_de0cUmey6Gz-188" value="" style="ellipse;whiteSpace=wrap;html=1;aspect=fixed;" parent="1" vertex="1">
          <mxGeometry x="-98.29000000000002" y="664" width="10" height="10" as="geometry" />
        </mxCell>
        <mxCell id="P5rdZ5vx_de0cUmey6Gz-189" value="Id_restauro" style="text;html=1;align=center;verticalAlign=middle;whiteSpace=wrap;rounded=0;" parent="1" vertex="1">
          <mxGeometry x="-81.29000000000002" y="601" width="60" height="30" as="geometry" />
        </mxCell>
        <mxCell id="P5rdZ5vx_de0cUmey6Gz-190" value="Data_inizio" style="text;html=1;align=center;verticalAlign=middle;whiteSpace=wrap;rounded=0;" parent="1" vertex="1">
          <mxGeometry x="-82.29000000000002" y="618" width="60" height="30" as="geometry" />
        </mxCell>
        <mxCell id="P5rdZ5vx_de0cUmey6Gz-191" value="Data_fine" style="text;html=1;align=center;verticalAlign=middle;whiteSpace=wrap;rounded=0;" parent="1" vertex="1">
          <mxGeometry x="-85.29000000000002" y="636" width="60" height="30" as="geometry" />
        </mxCell>
        <mxCell id="P5rdZ5vx_de0cUmey6Gz-192" value="Costo" style="text;html=1;align=center;verticalAlign=middle;whiteSpace=wrap;rounded=0;" parent="1" vertex="1">
          <mxGeometry x="-95.29000000000002" y="654" width="60" height="30" as="geometry" />
        </mxCell>
        <mxCell id="P5rdZ5vx_de0cUmey6Gz-193" value="" style="endArrow=none;html=1;rounded=0;" parent="1" target="P5rdZ5vx_de0cUmey6Gz-194" edge="1">
          <mxGeometry width="50" height="50" relative="1" as="geometry">
            <mxPoint x="573" y="1332.85" as="sourcePoint" />
            <mxPoint x="613" y="1332.85" as="targetPoint" />
          </mxGeometry>
        </mxCell>
        <mxCell id="P5rdZ5vx_de0cUmey6Gz-194" value="" style="ellipse;whiteSpace=wrap;html=1;aspect=fixed;strokeColor=#82b366;fillColor=#d5e8d4;gradientColor=#97d077;" parent="1" vertex="1">
          <mxGeometry x="603" y="1327.85" width="10" height="10" as="geometry" />
        </mxCell>
        <mxCell id="P5rdZ5vx_de0cUmey6Gz-195" value="" style="endArrow=none;html=1;rounded=0;" parent="1" edge="1">
          <mxGeometry width="50" height="50" relative="1" as="geometry">
            <mxPoint x="573" y="1349.85" as="sourcePoint" />
            <mxPoint x="603" y="1349.85" as="targetPoint" />
          </mxGeometry>
        </mxCell>
        <mxCell id="P5rdZ5vx_de0cUmey6Gz-196" value="" style="ellipse;whiteSpace=wrap;html=1;aspect=fixed;" parent="1" vertex="1">
          <mxGeometry x="603" y="1344.85" width="10" height="10" as="geometry" />
        </mxCell>
        <mxCell id="P5rdZ5vx_de0cUmey6Gz-197" value="Id_opera" style="text;html=1;align=center;verticalAlign=middle;whiteSpace=wrap;rounded=0;" parent="1" vertex="1">
          <mxGeometry x="613" y="1316.85" width="60" height="30" as="geometry" />
        </mxCell>
        <mxCell id="P5rdZ5vx_de0cUmey6Gz-198" value="Nome" style="text;html=1;align=center;verticalAlign=middle;whiteSpace=wrap;rounded=0;" parent="1" vertex="1">
          <mxGeometry x="603" y="1334.85" width="60" height="30" as="geometry" />
        </mxCell>
        <mxCell id="P5rdZ5vx_de0cUmey6Gz-199" value="" style="endArrow=none;html=1;rounded=0;" parent="1" target="P5rdZ5vx_de0cUmey6Gz-200" edge="1">
          <mxGeometry width="50" height="50" relative="1" as="geometry">
            <mxPoint x="1299.05" y="86" as="sourcePoint" />
            <mxPoint x="1339.05" y="86" as="targetPoint" />
          </mxGeometry>
        </mxCell>
        <mxCell id="P5rdZ5vx_de0cUmey6Gz-200" value="" style="ellipse;whiteSpace=wrap;html=1;aspect=fixed;strokeColor=#82b366;fillColor=#d5e8d4;gradientColor=#97d077;" parent="1" vertex="1">
          <mxGeometry x="1329.05" y="81" width="10" height="10" as="geometry" />
        </mxCell>
        <mxCell id="P5rdZ5vx_de0cUmey6Gz-201" value="" style="endArrow=none;html=1;rounded=0;" parent="1" edge="1">
          <mxGeometry width="50" height="50" relative="1" as="geometry">
            <mxPoint x="1299.05" y="103" as="sourcePoint" />
            <mxPoint x="1329.05" y="103" as="targetPoint" />
          </mxGeometry>
        </mxCell>
        <mxCell id="P5rdZ5vx_de0cUmey6Gz-202" value="" style="ellipse;whiteSpace=wrap;html=1;aspect=fixed;" parent="1" vertex="1">
          <mxGeometry x="1329.05" y="98" width="10" height="10" as="geometry" />
        </mxCell>
        <mxCell id="P5rdZ5vx_de0cUmey6Gz-203" value="" style="endArrow=none;html=1;rounded=0;" parent="1" target="P5rdZ5vx_de0cUmey6Gz-204" edge="1">
          <mxGeometry width="50" height="50" relative="1" as="geometry">
            <mxPoint x="1299.05" y="120" as="sourcePoint" />
            <mxPoint x="1339.05" y="120" as="targetPoint" />
          </mxGeometry>
        </mxCell>
        <mxCell id="P5rdZ5vx_de0cUmey6Gz-204" value="" style="ellipse;whiteSpace=wrap;html=1;aspect=fixed;" parent="1" vertex="1">
          <mxGeometry x="1329.05" y="115" width="10" height="10" as="geometry" />
        </mxCell>
        <mxCell id="P5rdZ5vx_de0cUmey6Gz-205" value="" style="endArrow=none;html=1;rounded=0;" parent="1" edge="1">
          <mxGeometry width="50" height="50" relative="1" as="geometry">
            <mxPoint x="1299.05" y="139" as="sourcePoint" />
            <mxPoint x="1329.05" y="139" as="targetPoint" />
          </mxGeometry>
        </mxCell>
        <mxCell id="P5rdZ5vx_de0cUmey6Gz-206" value="" style="ellipse;whiteSpace=wrap;html=1;aspect=fixed;" parent="1" vertex="1">
          <mxGeometry x="1329.05" y="133" width="10" height="10" as="geometry" />
        </mxCell>
        <mxCell id="P5rdZ5vx_de0cUmey6Gz-207" value="" style="endArrow=none;html=1;rounded=0;" parent="1" edge="1">
          <mxGeometry width="50" height="50" relative="1" as="geometry">
            <mxPoint x="1299.05" y="158" as="sourcePoint" />
            <mxPoint x="1329.0500000000404" y="158" as="targetPoint" />
          </mxGeometry>
        </mxCell>
        <mxCell id="P5rdZ5vx_de0cUmey6Gz-208" value="" style="ellipse;whiteSpace=wrap;html=1;aspect=fixed;" parent="1" vertex="1">
          <mxGeometry x="1329.05" y="153" width="10" height="10" as="geometry" />
        </mxCell>
        <mxCell id="P5rdZ5vx_de0cUmey6Gz-209" value="Id_visita" style="text;html=1;align=center;verticalAlign=middle;whiteSpace=wrap;rounded=0;" parent="1" vertex="1">
          <mxGeometry x="1337.05" y="71" width="60" height="30" as="geometry" />
        </mxCell>
        <mxCell id="P5rdZ5vx_de0cUmey6Gz-210" value="Durata" style="text;html=1;align=center;verticalAlign=middle;whiteSpace=wrap;rounded=0;" parent="1" vertex="1">
          <mxGeometry x="1333.05" y="87" width="60" height="30" as="geometry" />
        </mxCell>
        <mxCell id="P5rdZ5vx_de0cUmey6Gz-211" value="Lingua" style="text;html=1;align=center;verticalAlign=middle;whiteSpace=wrap;rounded=0;" parent="1" vertex="1">
          <mxGeometry x="1334.05" y="105" width="60" height="30" as="geometry" />
        </mxCell>
        <mxCell id="P5rdZ5vx_de0cUmey6Gz-212" value="Prezzo" style="text;html=1;align=center;verticalAlign=middle;whiteSpace=wrap;rounded=0;" parent="1" vertex="1">
          <mxGeometry x="1335.05" y="123" width="60" height="30" as="geometry" />
        </mxCell>
        <mxCell id="P5rdZ5vx_de0cUmey6Gz-213" value="Numero_partecipanti" style="text;html=1;align=center;verticalAlign=middle;whiteSpace=wrap;rounded=0;" parent="1" vertex="1">
          <mxGeometry x="1373.05" y="143" width="60" height="30" as="geometry" />
        </mxCell>
        <mxCell id="P5rdZ5vx_de0cUmey6Gz-214" value="" style="endArrow=none;html=1;rounded=0;" parent="1" target="P5rdZ5vx_de0cUmey6Gz-215" edge="1">
          <mxGeometry width="50" height="50" relative="1" as="geometry">
            <mxPoint x="1423" y="958" as="sourcePoint" />
            <mxPoint x="1463" y="958" as="targetPoint" />
          </mxGeometry>
        </mxCell>
        <mxCell id="P5rdZ5vx_de0cUmey6Gz-215" value="" style="ellipse;whiteSpace=wrap;html=1;aspect=fixed;" parent="1" vertex="1">
          <mxGeometry x="1453" y="953" width="10" height="10" as="geometry" />
        </mxCell>
        <mxCell id="P5rdZ5vx_de0cUmey6Gz-216" value="" style="endArrow=none;html=1;rounded=0;" parent="1" edge="1">
          <mxGeometry width="50" height="50" relative="1" as="geometry">
            <mxPoint x="1423" y="975" as="sourcePoint" />
            <mxPoint x="1453" y="975" as="targetPoint" />
          </mxGeometry>
        </mxCell>
        <mxCell id="P5rdZ5vx_de0cUmey6Gz-217" value="" style="ellipse;whiteSpace=wrap;html=1;aspect=fixed;" parent="1" vertex="1">
          <mxGeometry x="1453" y="970" width="10" height="10" as="geometry" />
        </mxCell>
        <mxCell id="P5rdZ5vx_de0cUmey6Gz-218" value="" style="endArrow=none;html=1;rounded=0;" parent="1" target="P5rdZ5vx_de0cUmey6Gz-219" edge="1">
          <mxGeometry width="50" height="50" relative="1" as="geometry">
            <mxPoint x="1426" y="1271" as="sourcePoint" />
            <mxPoint x="1466" y="1271" as="targetPoint" />
          </mxGeometry>
        </mxCell>
        <mxCell id="P5rdZ5vx_de0cUmey6Gz-219" value="" style="ellipse;whiteSpace=wrap;html=1;aspect=fixed;" parent="1" vertex="1">
          <mxGeometry x="1456" y="1266" width="10" height="10" as="geometry" />
        </mxCell>
        <mxCell id="P5rdZ5vx_de0cUmey6Gz-220" value="" style="endArrow=none;html=1;rounded=0;" parent="1" edge="1">
          <mxGeometry width="50" height="50" relative="1" as="geometry">
            <mxPoint x="1426" y="1290" as="sourcePoint" />
            <mxPoint x="1456" y="1290" as="targetPoint" />
          </mxGeometry>
        </mxCell>
        <mxCell id="P5rdZ5vx_de0cUmey6Gz-221" value="" style="ellipse;whiteSpace=wrap;html=1;aspect=fixed;" parent="1" vertex="1">
          <mxGeometry x="1456" y="1284" width="10" height="10" as="geometry" />
        </mxCell>
        <mxCell id="P5rdZ5vx_de0cUmey6Gz-222" value="" style="endArrow=none;html=1;rounded=0;" parent="1" edge="1">
          <mxGeometry width="50" height="50" relative="1" as="geometry">
            <mxPoint x="1425.05" y="1575" as="sourcePoint" />
            <mxPoint x="1455.0500000000404" y="1575" as="targetPoint" />
          </mxGeometry>
        </mxCell>
        <mxCell id="P5rdZ5vx_de0cUmey6Gz-223" value="" style="ellipse;whiteSpace=wrap;html=1;aspect=fixed;" parent="1" vertex="1">
          <mxGeometry x="1455.05" y="1570" width="10" height="10" as="geometry" />
        </mxCell>
        <mxCell id="P5rdZ5vx_de0cUmey6Gz-224" value="Prezzo" style="text;html=1;align=center;verticalAlign=middle;whiteSpace=wrap;rounded=0;" parent="1" vertex="1">
          <mxGeometry x="1456" y="943" width="60" height="30" as="geometry" />
        </mxCell>
        <mxCell id="P5rdZ5vx_de0cUmey6Gz-225" value="Data" style="text;html=1;align=center;verticalAlign=middle;whiteSpace=wrap;rounded=0;" parent="1" vertex="1">
          <mxGeometry x="1450" y="960" width="60" height="30" as="geometry" />
        </mxCell>
        <mxCell id="P5rdZ5vx_de0cUmey6Gz-226" value="Data" style="text;html=1;align=center;verticalAlign=middle;whiteSpace=wrap;rounded=0;" parent="1" vertex="1">
          <mxGeometry x="1453" y="1274" width="60" height="30" as="geometry" />
        </mxCell>
        <mxCell id="P5rdZ5vx_de0cUmey6Gz-227" value="Prezzo" style="text;html=1;align=center;verticalAlign=middle;whiteSpace=wrap;rounded=0;" parent="1" vertex="1">
          <mxGeometry x="1460" y="1256.25" width="60" height="30" as="geometry" />
        </mxCell>
        <mxCell id="P5rdZ5vx_de0cUmey6Gz-228" value="" style="endArrow=none;html=1;rounded=0;" parent="1" edge="1">
          <mxGeometry width="50" height="50" relative="1" as="geometry">
            <mxPoint x="1426.05" y="1593" as="sourcePoint" />
            <mxPoint x="1456.0500000000404" y="1593" as="targetPoint" />
          </mxGeometry>
        </mxCell>
        <mxCell id="P5rdZ5vx_de0cUmey6Gz-229" value="" style="ellipse;whiteSpace=wrap;html=1;aspect=fixed;" parent="1" vertex="1">
          <mxGeometry x="1456.05" y="1588" width="10" height="10" as="geometry" />
        </mxCell>
        <mxCell id="P5rdZ5vx_de0cUmey6Gz-230" value="" style="endArrow=none;html=1;rounded=0;" parent="1" edge="1">
          <mxGeometry width="50" height="50" relative="1" as="geometry">
            <mxPoint x="1426.05" y="1556" as="sourcePoint" />
            <mxPoint x="1456.0500000000404" y="1556" as="targetPoint" />
          </mxGeometry>
        </mxCell>
        <mxCell id="P5rdZ5vx_de0cUmey6Gz-231" value="" style="ellipse;whiteSpace=wrap;html=1;aspect=fixed;" parent="1" vertex="1">
          <mxGeometry x="1456.05" y="1551" width="10" height="10" as="geometry" />
        </mxCell>
        <mxCell id="P5rdZ5vx_de0cUmey6Gz-232" value="Prezzo" style="text;html=1;align=center;verticalAlign=middle;whiteSpace=wrap;rounded=0;" parent="1" vertex="1">
          <mxGeometry x="1459" y="1541" width="60" height="30" as="geometry" />
        </mxCell>
        <mxCell id="P5rdZ5vx_de0cUmey6Gz-233" value="Tipologia" style="text;html=1;align=center;verticalAlign=middle;whiteSpace=wrap;rounded=0;" parent="1" vertex="1">
          <mxGeometry x="1465" y="1560" width="60" height="30" as="geometry" />
        </mxCell>
        <mxCell id="P5rdZ5vx_de0cUmey6Gz-234" value="Durata" style="text;html=1;align=center;verticalAlign=middle;whiteSpace=wrap;rounded=0;" parent="1" vertex="1">
          <mxGeometry x="1460" y="1580" width="60" height="30" as="geometry" />
        </mxCell>
        <mxCell id="P5rdZ5vx_de0cUmey6Gz-235" value="" style="endArrow=none;html=1;rounded=0;entryX=0.078;entryY=1.035;entryDx=0;entryDy=0;entryPerimeter=0;" parent="1" edge="1">
          <mxGeometry width="50" height="50" relative="1" as="geometry">
            <mxPoint x="902.42" y="1354.8500000000001" as="sourcePoint" />
            <mxPoint x="902.0200000000001" y="1325" as="targetPoint" />
          </mxGeometry>
        </mxCell>
        <mxCell id="P5rdZ5vx_de0cUmey6Gz-236" value="" style="ellipse;whiteSpace=wrap;html=1;aspect=fixed;strokeColor=#82b366;fillColor=#d5e8d4;gradientColor=#97d077;" parent="1" vertex="1">
          <mxGeometry x="897.42" y="1353.8500000000001" width="10" height="10" as="geometry" />
        </mxCell>
        <mxCell id="P5rdZ5vx_de0cUmey6Gz-237" value="" style="endArrow=none;html=1;rounded=0;entryX=0.078;entryY=1.035;entryDx=0;entryDy=0;entryPerimeter=0;" parent="1" edge="1">
          <mxGeometry width="50" height="50" relative="1" as="geometry">
            <mxPoint x="961.42" y="1354.8500000000001" as="sourcePoint" />
            <mxPoint x="961.0200000000001" y="1325" as="targetPoint" />
          </mxGeometry>
        </mxCell>
        <mxCell id="P5rdZ5vx_de0cUmey6Gz-238" value="" style="ellipse;whiteSpace=wrap;html=1;aspect=fixed;" parent="1" vertex="1">
          <mxGeometry x="956.42" y="1350.8500000000001" width="10" height="10" as="geometry" />
        </mxCell>
        <mxCell id="P5rdZ5vx_de0cUmey6Gz-239" value="Id_biglietto" style="text;html=1;align=center;verticalAlign=middle;whiteSpace=wrap;rounded=0;" parent="1" vertex="1">
          <mxGeometry x="870" y="1358.85" width="60" height="30" as="geometry" />
        </mxCell>
        <mxCell id="P5rdZ5vx_de0cUmey6Gz-240" value="Status" style="text;html=1;align=center;verticalAlign=middle;whiteSpace=wrap;rounded=0;" parent="1" vertex="1">
          <mxGeometry x="933" y="1358.85" width="60" height="30" as="geometry" />
        </mxCell>
        <mxCell id="P5rdZ5vx_de0cUmey6Gz-241" value="Data&lt;div&gt;fine&lt;/div&gt;" style="text;html=1;align=center;verticalAlign=middle;whiteSpace=wrap;rounded=0;" parent="1" vertex="1">
          <mxGeometry x="573" y="234" width="60" height="22" as="geometry" />
        </mxCell>
        <mxCell id="P5rdZ5vx_de0cUmey6Gz-242" value="Data&lt;div&gt;inizio&lt;/div&gt;" style="text;html=1;align=center;verticalAlign=middle;whiteSpace=wrap;rounded=0;" parent="1" vertex="1">
          <mxGeometry x="514.29" y="234" width="60" height="22" as="geometry" />
        </mxCell>
        <mxCell id="P5rdZ5vx_de0cUmey6Gz-243" value="Capacità&lt;div&gt;massima&lt;/div&gt;" style="text;html=1;align=center;verticalAlign=middle;whiteSpace=wrap;rounded=0;" parent="1" vertex="1">
          <mxGeometry x="620" y="230" width="60" height="30" as="geometry" />
        </mxCell>
        <mxCell id="P5rdZ5vx_de0cUmey6Gz-244" value="" style="endArrow=none;html=1;rounded=0;" parent="1" source="P5rdZ5vx_de0cUmey6Gz-246" edge="1">
          <mxGeometry width="50" height="50" relative="1" as="geometry">
            <mxPoint x="838.71" y="959" as="sourcePoint" />
            <mxPoint x="868.71" y="976" as="targetPoint" />
          </mxGeometry>
        </mxCell>
        <mxCell id="P5rdZ5vx_de0cUmey6Gz-245" value="" style="endArrow=none;html=1;rounded=0;" parent="1" target="P5rdZ5vx_de0cUmey6Gz-246" edge="1">
          <mxGeometry width="50" height="50" relative="1" as="geometry">
            <mxPoint x="838.71" y="959" as="sourcePoint" />
            <mxPoint x="868.71" y="976" as="targetPoint" />
          </mxGeometry>
        </mxCell>
        <mxCell id="P5rdZ5vx_de0cUmey6Gz-246" value="" style="ellipse;whiteSpace=wrap;html=1;aspect=fixed;" parent="1" vertex="1">
          <mxGeometry x="834.4200000000001" y="949" width="10" height="10" as="geometry" />
        </mxCell>
        <mxCell id="P5rdZ5vx_de0cUmey6Gz-247" value="Data&lt;div&gt;acquisto&lt;/div&gt;" style="text;html=1;align=center;verticalAlign=middle;whiteSpace=wrap;rounded=0;" parent="1" vertex="1">
          <mxGeometry x="784.4200000000001" y="919" width="60" height="30" as="geometry" />
        </mxCell>
        <mxCell id="P5rdZ5vx_de0cUmey6Gz-248" value="(0,N)" style="text;html=1;align=center;verticalAlign=middle;whiteSpace=wrap;rounded=0;fontSize=21;" parent="1" vertex="1">
          <mxGeometry x="152.29" y="-280" width="60" height="30" as="geometry" />
        </mxCell>
        <mxCell id="P5rdZ5vx_de0cUmey6Gz-249" value="" style="endArrow=none;html=1;rounded=0;" parent="1" edge="1">
          <mxGeometry width="50" height="50" relative="1" as="geometry">
            <mxPoint x="1300.05" y="181" as="sourcePoint" />
            <mxPoint x="1330.0500000000404" y="181" as="targetPoint" />
          </mxGeometry>
        </mxCell>
        <mxCell id="P5rdZ5vx_de0cUmey6Gz-250" value="" style="ellipse;whiteSpace=wrap;html=1;aspect=fixed;" parent="1" vertex="1">
          <mxGeometry x="1330.05" y="176" width="10" height="10" as="geometry" />
        </mxCell>
        <mxCell id="P5rdZ5vx_de0cUmey6Gz-251" value="Data" style="text;html=1;align=center;verticalAlign=middle;whiteSpace=wrap;rounded=0;" parent="1" vertex="1">
          <mxGeometry x="1329.05" y="166" width="60" height="30" as="geometry" />
        </mxCell>
        <mxCell id="P5rdZ5vx_de0cUmey6Gz-252" value="(1,1)" style="text;html=1;align=center;verticalAlign=middle;whiteSpace=wrap;rounded=0;fontSize=21;" parent="1" vertex="1">
          <mxGeometry x="1140" y="30" width="60" height="30" as="geometry" />
        </mxCell>
        <mxCell id="P5rdZ5vx_de0cUmey6Gz-253" value="(0,N)" style="text;html=1;align=center;verticalAlign=middle;whiteSpace=wrap;rounded=0;fontSize=21;" parent="1" vertex="1">
          <mxGeometry x="152.29" y="10" width="60" height="30" as="geometry" />
        </mxCell>
        <mxCell id="P5rdZ5vx_de0cUmey6Gz-254" value="(1,1)" style="text;html=1;align=center;verticalAlign=middle;whiteSpace=wrap;rounded=0;fontSize=21;" parent="1" vertex="1">
          <mxGeometry x="280.29" y="585" width="60" height="30" as="geometry" />
        </mxCell>
        <mxCell id="P5rdZ5vx_de0cUmey6Gz-255" value="(1,N)" style="text;html=1;align=center;verticalAlign=middle;whiteSpace=wrap;rounded=0;fontSize=21;" parent="1" vertex="1">
          <mxGeometry x="594" y="400" width="60" height="30" as="geometry" />
        </mxCell>
        <mxCell id="P5rdZ5vx_de0cUmey6Gz-256" value="(0,N)" style="text;html=1;align=center;verticalAlign=middle;whiteSpace=wrap;rounded=0;fontSize=21;" parent="1" vertex="1">
          <mxGeometry x="514.29" y="588" width="60" height="30" as="geometry" />
        </mxCell>
        <mxCell id="P5rdZ5vx_de0cUmey6Gz-257" value="(1,N)" style="text;html=1;align=center;verticalAlign=middle;whiteSpace=wrap;rounded=0;fontSize=21;" parent="1" vertex="1">
          <mxGeometry x="902.05" y="615" width="60" height="30" as="geometry" />
        </mxCell>
        <mxCell id="P5rdZ5vx_de0cUmey6Gz-258" value="(0,N)" style="text;html=1;align=center;verticalAlign=middle;whiteSpace=wrap;rounded=0;fontSize=21;" parent="1" vertex="1">
          <mxGeometry x="580" y="636" width="60" height="30" as="geometry" />
        </mxCell>
        <mxCell id="P5rdZ5vx_de0cUmey6Gz-259" value="(0,1)" style="text;html=1;align=center;verticalAlign=middle;whiteSpace=wrap;rounded=0;fontSize=21;" parent="1" vertex="1">
          <mxGeometry x="1064.76" y="716" width="60" height="30" as="geometry" />
        </mxCell>
        <mxCell id="P5rdZ5vx_de0cUmey6Gz-260" value="(1,1)" style="text;html=1;align=center;verticalAlign=middle;whiteSpace=wrap;rounded=0;fontSize=21;" parent="1" vertex="1">
          <mxGeometry x="1169.05" y="773" width="60" height="30" as="geometry" />
        </mxCell>
        <mxCell id="P5rdZ5vx_de0cUmey6Gz-261" value="(0,N)" style="text;html=1;align=center;verticalAlign=middle;whiteSpace=wrap;rounded=0;fontSize=21;" parent="1" vertex="1">
          <mxGeometry x="994.9" y="551" width="60" height="30" as="geometry" />
        </mxCell>
        <mxCell id="P5rdZ5vx_de0cUmey6Gz-262" value="(1,N)" style="text;html=1;align=center;verticalAlign=middle;whiteSpace=wrap;rounded=0;fontSize=21;" parent="1" vertex="1">
          <mxGeometry x="1132.05" y="280" width="60" height="30" as="geometry" />
        </mxCell>
        <mxCell id="P5rdZ5vx_de0cUmey6Gz-263" value="(1,N)" style="text;html=1;align=center;verticalAlign=middle;whiteSpace=wrap;rounded=0;fontSize=21;" parent="1" vertex="1">
          <mxGeometry x="956.42" y="716" width="60" height="30" as="geometry" />
        </mxCell>
        <mxCell id="P5rdZ5vx_de0cUmey6Gz-264" value="(0,N)" style="text;html=1;align=center;verticalAlign=middle;whiteSpace=wrap;rounded=0;fontSize=21;" parent="1" vertex="1">
          <mxGeometry x="860" y="1205" width="60" height="30" as="geometry" />
        </mxCell>
        <mxCell id="P5rdZ5vx_de0cUmey6Gz-265" value="(1,N)" style="text;html=1;align=center;verticalAlign=middle;whiteSpace=wrap;rounded=0;fontSize=21;" parent="1" vertex="1">
          <mxGeometry x="200.00000000000006" y="634" width="60" height="30" as="geometry" />
        </mxCell>
        <mxCell id="P5rdZ5vx_de0cUmey6Gz-266" value="(0,N)" style="text;html=1;align=center;verticalAlign=middle;whiteSpace=wrap;rounded=0;fontSize=21;" parent="1" vertex="1">
          <mxGeometry x="157.00000000000006" y="950" width="60" height="30" as="geometry" />
        </mxCell>
        <mxCell id="P5rdZ5vx_de0cUmey6Gz-267" value="(1,1)" style="text;html=1;align=center;verticalAlign=middle;whiteSpace=wrap;rounded=0;fontSize=21;" parent="1" vertex="1">
          <mxGeometry x="125.42000000000003" y="1179" width="60" height="30" as="geometry" />
        </mxCell>
        <mxCell id="P5rdZ5vx_de0cUmey6Gz-268" value="(0,N)" style="text;html=1;align=center;verticalAlign=middle;whiteSpace=wrap;rounded=0;fontSize=21;" parent="1" vertex="1">
          <mxGeometry x="327.00000000000006" y="1312.6" width="60" height="30" as="geometry" />
        </mxCell>
        <mxCell id="P5rdZ5vx_de0cUmey6Gz-269" value="(0,N)" style="text;html=1;align=center;verticalAlign=middle;whiteSpace=wrap;rounded=0;fontSize=21;" parent="1" vertex="1">
          <mxGeometry x="49.999999999999986" y="370" width="60" height="30" as="geometry" />
        </mxCell>
        <mxCell id="P5rdZ5vx_de0cUmey6Gz-270" value="(1,N)" style="text;html=1;align=center;verticalAlign=middle;whiteSpace=wrap;rounded=0;fontSize=21;" parent="1" vertex="1">
          <mxGeometry x="-230.00000000000003" y="555" width="60" height="30" as="geometry" />
        </mxCell>
        <mxCell id="P5rdZ5vx_de0cUmey6Gz-271" value="(1,1)" style="text;html=1;align=center;verticalAlign=middle;whiteSpace=wrap;rounded=0;fontSize=21;" parent="1" vertex="1">
          <mxGeometry x="-220.00000000000003" y="747" width="60" height="30" as="geometry" />
        </mxCell>
        <mxCell id="P5rdZ5vx_de0cUmey6Gz-272" value="(0,1)" style="text;html=1;align=center;verticalAlign=middle;whiteSpace=wrap;rounded=0;fontSize=21;" parent="1" vertex="1">
          <mxGeometry x="54.709999999999965" y="949" width="60" height="30" as="geometry" />
        </mxCell>
        <mxCell id="P5rdZ5vx_de0cUmey6Gz-273" value="(0,N)" style="text;html=1;align=center;verticalAlign=middle;whiteSpace=wrap;rounded=0;fontSize=21;" parent="1" vertex="1">
          <mxGeometry x="-348" y="1001" width="60" height="30" as="geometry" />
        </mxCell>
        <mxCell id="P5rdZ5vx_de0cUmey6Gz-274" value="(0,1)" style="text;html=1;align=center;verticalAlign=middle;whiteSpace=wrap;rounded=0;fontSize=21;" parent="1" vertex="1">
          <mxGeometry x="30" y="1101" width="60" height="30" as="geometry" />
        </mxCell>
        <mxCell id="P5rdZ5vx_de0cUmey6Gz-275" style="edgeStyle=orthogonalEdgeStyle;rounded=1;orthogonalLoop=1;jettySize=auto;html=1;exitX=1;exitY=0.5;exitDx=0;exitDy=0;entryX=0;entryY=0.5;entryDx=0;entryDy=0;endArrow=none;endFill=0;curved=0;strokeWidth=2;" parent="1" source="P5rdZ5vx_de0cUmey6Gz-276" target="P5rdZ5vx_de0cUmey6Gz-21" edge="1">
          <mxGeometry relative="1" as="geometry" />
        </mxCell>
        <mxCell id="P5rdZ5vx_de0cUmey6Gz-276" value="&lt;p&gt;&lt;font style=&quot;font-size: 25px;&quot; face=&quot;Times New Roman&quot;&gt;Museo&lt;/font&gt;&lt;/p&gt;" style="rounded=1;whiteSpace=wrap;html=1;shadow=1;fillColor=#d5e8d4;strokeColor=#82b366;" parent="1" vertex="1">
          <mxGeometry x="-1174.9" y="763" width="400.95" height="90" as="geometry" />
        </mxCell>
        <mxCell id="P5rdZ5vx_de0cUmey6Gz-277" value="" style="ellipse;whiteSpace=wrap;html=1;aspect=fixed;strokeColor=#82b366;fillColor=#d5e8d4;gradientColor=#97d077;" parent="1" vertex="1">
          <mxGeometry x="-1153" y="713" width="10" height="10" as="geometry" />
        </mxCell>
        <mxCell id="P5rdZ5vx_de0cUmey6Gz-278" value="" style="endArrow=none;html=1;rounded=0;" parent="1" edge="1">
          <mxGeometry width="50" height="50" relative="1" as="geometry">
            <mxPoint x="-1148" y="763" as="sourcePoint" />
            <mxPoint x="-1148" y="723" as="targetPoint" />
          </mxGeometry>
        </mxCell>
        <mxCell id="P5rdZ5vx_de0cUmey6Gz-279" value="" style="endArrow=none;html=1;rounded=0;" parent="1" edge="1">
          <mxGeometry width="50" height="50" relative="1" as="geometry">
            <mxPoint x="-1088" y="763" as="sourcePoint" />
            <mxPoint x="-1088" y="723" as="targetPoint" />
          </mxGeometry>
        </mxCell>
        <mxCell id="P5rdZ5vx_de0cUmey6Gz-280" value="" style="ellipse;whiteSpace=wrap;html=1;aspect=fixed;" parent="1" vertex="1">
          <mxGeometry x="-1093" y="713" width="10" height="10" as="geometry" />
        </mxCell>
        <mxCell id="P5rdZ5vx_de0cUmey6Gz-281" value="" style="endArrow=none;html=1;rounded=0;" parent="1" edge="1">
          <mxGeometry width="50" height="50" relative="1" as="geometry">
            <mxPoint x="-618" y="794" as="sourcePoint" />
            <mxPoint x="-640" y="760" as="targetPoint" />
          </mxGeometry>
        </mxCell>
        <mxCell id="P5rdZ5vx_de0cUmey6Gz-282" value="" style="ellipse;whiteSpace=wrap;html=1;aspect=fixed;rotation=-15;" parent="1" vertex="1">
          <mxGeometry x="-647" y="752" width="10" height="10" as="geometry" />
        </mxCell>
        <mxCell id="P5rdZ5vx_de0cUmey6Gz-283" value="Id_museo" style="text;html=1;align=center;verticalAlign=middle;whiteSpace=wrap;rounded=0;" parent="1" vertex="1">
          <mxGeometry x="-1180" y="683" width="60" height="30" as="geometry" />
        </mxCell>
        <mxCell id="P5rdZ5vx_de0cUmey6Gz-284" value="Nome" style="text;html=1;align=center;verticalAlign=middle;whiteSpace=wrap;rounded=0;" parent="1" vertex="1">
          <mxGeometry x="-1118" y="683" width="60" height="30" as="geometry" />
        </mxCell>
        <mxCell id="P5rdZ5vx_de0cUmey6Gz-285" value="Data&lt;div&gt;ritorno&lt;/div&gt;" style="text;html=1;align=center;verticalAlign=middle;whiteSpace=wrap;rounded=0;" parent="1" vertex="1">
          <mxGeometry x="-694.95" y="726" width="60" height="30" as="geometry" />
        </mxCell>
        <mxCell id="P5rdZ5vx_de0cUmey6Gz-286" value="" style="endArrow=none;html=1;rounded=0;" parent="1" edge="1">
          <mxGeometry width="50" height="50" relative="1" as="geometry">
            <mxPoint x="-583.05" y="773" as="sourcePoint" />
            <mxPoint x="-605.05" y="739" as="targetPoint" />
          </mxGeometry>
        </mxCell>
        <mxCell id="P5rdZ5vx_de0cUmey6Gz-287" value="" style="ellipse;whiteSpace=wrap;html=1;aspect=fixed;rotation=-15;" parent="1" vertex="1">
          <mxGeometry x="-612.05" y="731" width="10" height="10" as="geometry" />
        </mxCell>
        <mxCell id="P5rdZ5vx_de0cUmey6Gz-288" value="Data&lt;div&gt;prestito&lt;/div&gt;" style="text;html=1;align=center;verticalAlign=middle;whiteSpace=wrap;rounded=0;" parent="1" vertex="1">
          <mxGeometry x="-610" y="701" width="60" height="30" as="geometry" />
        </mxCell>
        <mxCell id="P5rdZ5vx_de0cUmey6Gz-289" value="(0,N)" style="text;html=1;align=center;verticalAlign=middle;whiteSpace=wrap;rounded=0;fontSize=21;" parent="1" vertex="1">
          <mxGeometry x="-780" y="777" width="60" height="30" as="geometry" />
        </mxCell>
        <mxCell id="P5rdZ5vx_de0cUmey6Gz-290" value="(0,1)" style="text;html=1;align=center;verticalAlign=middle;whiteSpace=wrap;rounded=0;fontSize=21;" parent="1" vertex="1">
          <mxGeometry x="29.99999999999997" y="1045" width="60" height="30" as="geometry" />
        </mxCell>
        <mxCell id="P5rdZ5vx_de0cUmey6Gz-291" value="" style="endArrow=none;html=1;rounded=0;" parent="1" edge="1">
          <mxGeometry width="50" height="50" relative="1" as="geometry">
            <mxPoint x="-1029" y="763" as="sourcePoint" />
            <mxPoint x="-1029" y="723" as="targetPoint" />
          </mxGeometry>
        </mxCell>
        <mxCell id="P5rdZ5vx_de0cUmey6Gz-292" value="" style="ellipse;whiteSpace=wrap;html=1;aspect=fixed;" parent="1" vertex="1">
          <mxGeometry x="-1034" y="713" width="10" height="10" as="geometry" />
        </mxCell>
        <mxCell id="P5rdZ5vx_de0cUmey6Gz-293" value="" style="endArrow=none;html=1;rounded=0;" parent="1" edge="1">
          <mxGeometry width="50" height="50" relative="1" as="geometry">
            <mxPoint x="-965" y="763" as="sourcePoint" />
            <mxPoint x="-965" y="723" as="targetPoint" />
          </mxGeometry>
        </mxCell>
        <mxCell id="P5rdZ5vx_de0cUmey6Gz-294" value="" style="ellipse;whiteSpace=wrap;html=1;aspect=fixed;" parent="1" vertex="1">
          <mxGeometry x="-970" y="713" width="10" height="10" as="geometry" />
        </mxCell>
        <mxCell id="P5rdZ5vx_de0cUmey6Gz-295" value="" style="endArrow=none;html=1;rounded=0;" parent="1" edge="1">
          <mxGeometry width="50" height="50" relative="1" as="geometry">
            <mxPoint x="-898" y="762" as="sourcePoint" />
            <mxPoint x="-898" y="722" as="targetPoint" />
          </mxGeometry>
        </mxCell>
        <mxCell id="P5rdZ5vx_de0cUmey6Gz-296" value="" style="ellipse;whiteSpace=wrap;html=1;aspect=fixed;" parent="1" vertex="1">
          <mxGeometry x="-903" y="712" width="10" height="10" as="geometry" />
        </mxCell>
        <mxCell id="P5rdZ5vx_de0cUmey6Gz-297" value="Indirizzo" style="text;html=1;align=center;verticalAlign=middle;whiteSpace=wrap;rounded=0;" parent="1" vertex="1">
          <mxGeometry x="-1059" y="681" width="60" height="30" as="geometry" />
        </mxCell>
        <mxCell id="P5rdZ5vx_de0cUmey6Gz-298" value="Telefono" style="text;html=1;align=center;verticalAlign=middle;whiteSpace=wrap;rounded=0;" parent="1" vertex="1">
          <mxGeometry x="-995.0000000000001" y="680" width="60" height="30" as="geometry" />
        </mxCell>
        <mxCell id="P5rdZ5vx_de0cUmey6Gz-299" value="Email" style="text;html=1;align=center;verticalAlign=middle;whiteSpace=wrap;rounded=0;" parent="1" vertex="1">
          <mxGeometry x="-928" y="680" width="60" height="30" as="geometry" />
        </mxCell>
      </root>
    </mxGraphModel>
  </diagram>
</mxfile>
